<?xml version="1.0" encoding="utf-8"?>
<!-- Generator: Adobe Illustrator 27.0.0, SVG Export Plug-In . SVG Version: 6.00 Build 0)  -->
<svg version="1.1" id="Layer_1" xmlns="http://www.w3.org/2000/svg" xmlns:xlink="http://www.w3.org/1999/xlink" x="0px" y="0px"
	 viewBox="0 0 320.019989 48.2200012" style="enable-background:new 0 0 320.019989 48.2200012;" xml:space="preserve">
<style type="text/css">
	.st0{fill:#E2785F;}
</style>
<path class="st0" d="M0.74,21.1299992c0.13-0.8899994,0.2-1.8299999,0.2-2.8199997V7.5500002c0-1.0100002-0.08-1.98-0.23-2.9200001
	C0.58,3.8200002,0.34,2.96,0.01,2.0500002H5.71C5.3699999,2.9400001,5.1500001,3.8300002,5.02,4.7000003
	C4.9000001,5.5700002,4.8400002,6.5200005,4.8400002,7.5500002v11.0299997c0,1.0300007,0.04,1.7999992,0.1300001,2.3099995
	C5.1300001,22.0100002,5.3700004,22.9899998,5.71,23.8400002H0.03c0.34-0.9200001,0.57-1.8199997,0.7-2.7199993L0.74,21.1299992z
	 M4.0599999,15.6599998L9.3600006,7.54c0.6700001-1.0299997,1.1400003-1.96,1.4099998-2.8000002
	c0.2700005-0.8399999,0.3900003-1.74,0.3699999-2.7h4.6599998c-0.7399998,0.6299999-1.4499998,1.3399999-2.1300001,2.1300004
	s-1.4499998,1.77-2.3000002,2.9300003c-0.3100004,0.4299998-0.6300001,0.8499999-0.9399996,1.2700005l-5.8699999,8.1200008
	l-0.5-0.8400002L4.0599999,15.6599998z M7.6300001,13.5200005c-0.1199999-0.1999998-0.27-0.3199997-0.4499998-0.3699999
	s-0.46-0.0699997-0.8400002-0.0699997l0.5-0.9099998H9.46c0.6899996,0,1.2600002,0.0699997,1.6899996,0.1999998
	S11.8799992,12.8000011,12.04,13.2400007l2.25,6.8800001c0.4700003,1.5200005,1.0699997,2.7600002,1.8100004,3.7199993h-5.0599995
	l-2.9899998-9.3199997C7.8900013,14.0500002,7.750001,13.71,7.6300011,13.5100002L7.6300001,13.5200005z"/>
<path class="st0" d="M18.0100002,18.3500004C18.5,17.75,19.0699997,17.2700005,19.7200012,16.9200001
	c0.6499996-0.3500004,1.4799995-0.7199993,2.4799995-1.1199999c0.0400009,0,0.1100006-0.0200005,0.2000008-0.0699997
	c0.8500004-0.3400002,1.5300007-0.6300001,2.0499992-0.8900003c0.5100002-0.2600002,0.8899994-0.4899998,1.1200008-0.6999998
	c0.2299995-0.21,0.3500004-0.4200001,0.3500004-0.6199999v-1.0100002c0-1.3400002-0.1800003-2.4400005-0.5400009-3.29
	s-1.0300007-1.27-2.0100002-1.27c-0.6299992,0-1.1100006,0.1900001-1.4400005,0.5700002
	c-0.3400002,0.3800001-0.5,0.9300003-0.5,1.6400003c0,0.96,0.2299995,1.9899998,0.7000008,3.0900002l-4.1599998-0.2299995
	v-0.9399996c0-0.96,0.2199993-1.8500004,0.6700001-2.6700001s1.1299992-1.48,2.0499992-1.98s2.0499992-0.75,3.3899994-0.75
	c1.789999,0,3.1200008,0.4299998,3.9899998,1.27c0.8700008,0.8500004,1.3999996,2.0500002,1.5799999,3.5900002
	c0.0200005,0.54,0.0499992,1.0799999,0.0699997,1.6400003v5.4300003c0,1.2999992,0.0699997,2.289999,0.2000008,2.9899998
	c0.1299992,0.7399998,0.3700008,1.4899998,0.7000008,2.25h-4.0599995c-0.2000008-0.4699993-0.3400002-0.8199997-0.3999996-1.0400009
	c-0.0699997-0.25-0.1200008-0.4899998-0.1700001-0.7399998s-0.0699997-0.4799995-0.0699997-0.7000008v-4.1900005
	c0-0.25-0.0300007-0.4200001-0.0799999-0.5200005c-0.0599995-0.1000004-0.1599998-0.1700001-0.2999992-0.2199993
	c-0.1499996-0.0400009-0.3899994-0.0699997-0.7199993-0.0699997c-1.3899994,0-2.3500004,0.2099991-2.8999996,0.6200008
	c-0.5499992,0.4099998-0.8199997,1.0900002-0.8199997,2.0300007c0,0.7600002,0.2099991,1.3700008,0.6200008,1.8299999
	c0.4099998,0.4599991,1.0100002,0.6900005,1.7900009,0.6900005c1.0100002,0,1.9300003-0.3600006,2.7800007-1.0699997
	l-0.1000004,0.6700001c-0.5599995,0.9400005-1.2800007,1.6700001-2.1599998,2.2000008s-1.8500004,0.7900009-2.8999996,0.7900009
	c-1.1599998,0-2.1000004-0.3299999-2.7999992-0.9899998c-0.7000008-0.6599998-1.0599995-1.5300007-1.0599995-2.6000004
	c0-0.8500004,0.25-1.5799999,0.7399998-2.1800003L18.0100002,18.3500004z"/>
<path class="st0" d="M33.0999985,21.4799995c0.0900002-0.6599998,0.1300011-1.4899998,0.1300011-2.5v-5.2700005
	c0-1.1800003-0.1100006-2.21-0.3400002-3.0900002C32.7599983,9.8399992,32.5,9.1099987,32.1199989,8.4399986
	c1.6500015-0.7200003,2.9500008-1.3200002,3.8899994-1.8099999c0.2700005,0.4900002,0.5,1.1599998,0.7000008,2.0099998
	c0.2000008,0.8299999,0.3100014,1.5199995,0.3400002,2.0799999v0.3699999H36.75
	c0.2200012-1.1400003,0.5-2.0299997,0.8400002-2.6700001s0.7700005-1.0900002,1.3100014-1.3600001
	s1.2200012-0.4000001,2.0499992-0.4000001c0.5400009,0,1.0099983,0.0599999,1.4099998,0.1700001l-0.7000008,5.1999998
	c-0.5600014-0.8299999-1.0800018-1.4300003-1.5800018-1.8100004c-0.4900017-0.3800001-0.9599991-0.5699997-1.4099998-0.5699997
	c-0.5400009,0-0.9500008,0.3199997-1.2200012,0.9700003c-0.2799988,0.6499996-0.4199982,1.8800001-0.4199982,3.6899996v4.9599991
	c0,0.9200001,0.0600014,1.6900005,0.1699982,2.3099995c0.0900002,0.6499996,0.2999992,1.3999996,0.6399994,2.25h-5.3300018
	c0.3100014-0.9200001,0.5099983-1.7000008,0.5999985-2.3600006L33.0999985,21.4799995z"/>
<path class="st0" d="M44.5699997,4.54C44.079998,4.0599999,43.829998,3.46,43.829998,2.75s0.25-1.35,0.7400017-1.83
	s1.1100006-0.72,1.8400002-0.72s1.3899994,0.24,1.8800011,0.72s0.7400017,1.09,0.7400017,1.83s-0.25,1.3099999-0.7400017,1.79
	s-1.1199989,0.7200003-1.8800011,0.7200003S45.0600014,5.0200005,44.5699997,4.54z M44.5,21.4799995
	c0.0900002-0.6599998,0.1300011-1.4899998,0.1300011-2.5v-5.6999998c0-1.0699997-0.0600014-1.96-0.1699982-2.6500006
	c-0.0900002-0.7799997-0.2900009-1.5200005-0.5999985-2.21c1.3600006-0.3999996,2.8699989-0.9700003,4.5299988-1.71v12.2799988
	c0,1.0699997,0.0299988,1.8700008,0.0999985,2.3800011c0.1599998,0.8700008,0.3800011,1.7000008,0.6699982,2.4799995h-5.2999992
	c0.3400002-0.9200001,0.5499992-1.7000008,0.6399994-2.3600006V21.4799995z"/>
<path class="st0" d="M52.0200005,21.5200005c0.0900002-0.7299995,0.1300011-1.6200008,0.1300011-2.6700001v-5.6999998
	c0-1.1199999-0.0600014-2.0199995-0.1699982-2.7200003c-0.1100006-0.7600002-0.3100014-1.4200001-0.5999985-1.9799995
	l1.0699997-0.4699998c1.4099998-0.6500001,2.3400002-1.0999999,2.7799988-1.3400002
	c0.1800003,0.4000001,0.3499985,0.9400001,0.5,1.6100001c0.1100006,0.6700001,0.1699982,1.25,0.1699982,1.7399998v8.8499994
	c0,1.0499992,0.0299988,1.8199997,0.0999985,2.3099995c0.1100006,0.9200001,0.3499985,1.8099995,0.7000008,2.6800003h-5.329998
	C51.7100029,23,51.920002,22.2299995,52.0100021,21.5L52.0200005,21.5200005z M60.5999985,23.8500004V12.0799999
	c0-0.96-0.1599998-1.6700001-0.4700012-2.1099997c-0.3100014-0.4499998-0.8199997-0.6700001-1.5099983-0.6700001
	c-0.4700012,0-0.9599991,0.1300001-1.4599991,0.3999996s-0.9900017,0.7300005-1.4599991,1.3699999l-0.2700005-0.1700001
	c0.5600014-1.4300003,1.2999992-2.4799995,2.2099991-3.1500001c0.9199982-0.6700001,1.9199982-1.0099998,3.0200005-1.0099998
	c1.1599998,0,2.0699997,0.3899999,2.7200012,1.1700001c0.6499977,0.7799997,0.9699974,1.96,0.9699974,3.5200005v6.9099998
	c0,0.8500004,0.0699997,1.7299995,0.1999969,2.6499996c0.1100006,0.9400005,0.3499985,1.8899994,0.6999969,2.8500004h-4.6599998
	L60.5999985,23.8500004z M69.2200012,22.3700008c-0.1100006-1.0699997-0.1699982-2.3899994-0.1699982-3.960001v-6.3400002
	c0-0.96-0.1600037-1.6700001-0.4700012-2.1099997C68.2700043,9.5100002,67.7600021,9.29,67.0699997,9.29
	c-0.4899979,0-0.9800034,0.1300001-1.4800034,0.3900003c-0.4899979,0.2600002-0.9800034,0.7200003-1.4800034,1.3900003
	l-0.2700005-0.1700001c0.5600014-1.4099998,1.2999992-2.4499998,2.2299995-3.1400003s1.9400024-1.02,3.0400009-1.02
	c1.1600037,0,2.0699997,0.3899999,2.7200012,1.1700001s0.9700012,1.9600005,0.9700012,3.52v6.9099998
	c0,0.9799995,0.0599976,1.8199997,0.1699982,2.5200005c0.1299973,1.0300007,0.3799973,2.0200005,0.7399979,2.9899998h-4.2300034
	c-0.1100006-0.4500008-0.1999969-0.9400005-0.2699966-1.4799995H69.2200012z"/>
<path class="st0" d="M76.1999969,18.3500004c0.4899979-0.6000004,1.0599976-1.0799999,1.7099991-1.4300003
	s1.4800034-0.7199993,2.4800034-1.1199999c0.0400009,0,0.1100006-0.0200005,0.1999969-0.0699997
	c0.8499985-0.3400002,1.5299988-0.6300001,2.0500031-0.8900003c0.5100021-0.2600002,0.8899994-0.4899998,1.1200027-0.6999998
	s0.3499985-0.4200001,0.3499985-0.6199999v-1.0100002c0-1.3400002-0.1800003-2.4400005-0.5400009-3.29
	s-1.0299988-1.27-2.0100021-1.27c-0.6299973,0-1.1100006,0.1900001-1.4400024,0.5700002
	c-0.3399963,0.3800001-0.5,0.9300003-0.5,1.6400003c0,0.96,0.2300034,1.9899998,0.6999969,3.0900002l-4.1600037-0.2299995
	v-0.9399996c0-0.96,0.2200012-1.8500004,0.6699982-2.6700001s1.1299973-1.48,2.0500031-1.98
	c0.9199982-0.5,2.0500031-0.75,3.3899994-0.75c1.7900009,0,3.1200027,0.4299998,3.9899979,1.27
	c0.8700027,0.8500004,1.4000015,2.0500002,1.5800018,3.5900002c0.0199966,0.54,0.0500031,1.0799999,0.0699997,1.6400003v5.4300003
	c0,1.2999992,0.0699997,2.289999,0.1999969,2.9899998c0.1299973,0.7399998,0.3700027,1.4899998,0.6999969,2.25h-4.0599976
	c-0.1999969-0.4699993-0.3399963-0.8199997-0.4000015-1.0400009c-0.0699997-0.25-0.1200027-0.4899998-0.1699982-0.7399998
	c-0.0500031-0.25-0.0699997-0.4799995-0.0699997-0.7000008v-4.1900005c0-0.25-0.0299988-0.4200001-0.0800018-0.5200005
	c-0.0599976-0.1000004-0.1600037-0.1700001-0.3000031-0.2199993c-0.1500015-0.0400009-0.3899994-0.0699997-0.7200012-0.0699997
	c-1.3899994,0-2.3499985,0.2099991-2.9000015,0.6200008c-0.5500031,0.4099998-0.8199997,1.0900002-0.8199997,2.0300007
	c0,0.7600002,0.2099991,1.3700008,0.6200027,1.8299999s1.0100021,0.6900005,1.7900009,0.6900005
	c1.0100021,0,1.9300003-0.3600006,2.7799988-1.0699997l-0.0999985,0.6700001
	c-0.5599976,0.9400005-1.2799988,1.6700001-2.1600037,2.2000008c-0.8799973,0.5300007-1.8499985,0.7900009-2.9000015,0.7900009
	c-1.1600037,0-2.0999985-0.3299999-2.8000031-0.9899998c-0.6999969-0.6599998-1.0599976-1.5300007-1.0599976-2.6000004
	c0-0.8500004,0.25-1.5799999,0.7399979-2.1800003L76.1999969,18.3500004z"/>
<path class="st0" d="M95.5800018,4.1799998c-0.3600006-0.79-0.7799988-1.5-1.2699966-2.1300001h6.6699982
	c-0.1100006,0.22-0.1999969,0.54-0.2699966,0.9400001s-0.0999985,0.8499999-0.0999985,1.3400002
	c0,1.0100002,0.1100006,1.9200001,0.3399963,2.75l3.8199997,13.3799992h-0.9100037L107.75,7.079999
	c0.1100006-0.3800001,0.1999969-0.8000002,0.25-1.2600002c0.0599976-0.46,0.0800018-0.9099998,0.0800018-1.3600001
	c0-0.51-0.0299988-0.98-0.0999985-1.4099998c-0.0699997-0.4200001-0.1800003-0.76-0.3399963-1.01h4.1900024
	c-0.5400009,0.6299999-1.0100021,1.3500001-1.4100037,2.1800001s-0.7900009,1.8299999-1.1699982,3.02l-5.3000031,16.7000008
	h-1.9100037L96.7099991,7.2399979c-0.4000015-1.25-0.7799988-2.27-1.1399994-3.0699997L95.5800018,4.1799998z"/>
<path class="st0" d="M113.1900024,18.3500004C113.6800003,17.75,114.25,17.2700005,114.9000015,16.9200001
	s1.4800034-0.7199993,2.4800034-1.1199999c0.0400009,0,0.1100006-0.0200005,0.1999969-0.0699997
	c0.8499985-0.3400002,1.5299988-0.6300001,2.0500031-0.8900003c0.5100021-0.2600002,0.8899994-0.4899998,1.1200027-0.6999998
	s0.3499985-0.4200001,0.3499985-0.6199999v-1.0100002c0-1.3400002-0.1800003-2.4400005-0.5400009-3.29
	s-1.0299988-1.27-2.0100021-1.27c-0.6299973,0-1.1100006,0.1900001-1.4400024,0.5700002
	c-0.3399963,0.3800001-0.5,0.9300003-0.5,1.6400003c0,0.96,0.2300034,1.9899998,0.6999969,3.0900002l-4.1600037-0.2299995
	v-0.9399996c0-0.96,0.2200012-1.8500004,0.6699982-2.6700001s1.1299973-1.48,2.0500031-1.98
	c0.9199982-0.5,2.0500031-0.75,3.3899994-0.75c1.7900009,0,3.1200027,0.4299998,3.9899979,1.27
	c0.8700027,0.8500004,1.4000015,2.0500002,1.5800018,3.5900002c0.0199966,0.54,0.0500031,1.0799999,0.0699997,1.6400003v5.4300003
	c0,1.2999992,0.0699997,2.289999,0.1999969,2.9899998c0.1299973,0.7399998,0.3700027,1.4899998,0.6999969,2.25h-4.0599976
	c-0.1999969-0.4699993-0.3399963-0.8199997-0.4000015-1.0400009c-0.0699997-0.25-0.1200027-0.4899998-0.1699982-0.7399998
	c-0.0500031-0.25-0.0699997-0.4799995-0.0699997-0.7000008v-4.1900005c0-0.25-0.0299988-0.4200001-0.0800018-0.5200005
	c-0.0599976-0.1000004-0.1600037-0.1700001-0.3000031-0.2199993c-0.1500015-0.0400009-0.3899994-0.0699997-0.7200012-0.0699997
	c-1.3899994,0-2.3499985,0.2099991-2.9000015,0.6200008c-0.5500031,0.4099998-0.8199997,1.0900002-0.8199997,2.0300007
	c0,0.7600002,0.2099991,1.3700008,0.6200027,1.8299999s1.0100021,0.6900005,1.7900009,0.6900005
	c1.0100021,0,1.9300003-0.3600006,2.7799988-1.0699997l-0.0999985,0.6700001
	c-0.5599976,0.9400005-1.2799988,1.6700001-2.1600037,2.2000008c-0.8799973,0.5300007-1.8499985,0.7900009-2.9000015,0.7900009
	c-1.1600037,0-2.0999985-0.3299999-2.8000031-0.9899998c-0.6999969-0.6599998-1.0599976-1.5300007-1.0599976-2.6000004
	c0-0.8500004,0.25-1.5799999,0.7399979-2.1800003L113.1900024,18.3500004z"/>
<path class="st0" d="M128.2299957,21.4799995c0.1000061-0.7299995,0.1499939-1.6000004,0.1499939-2.6300011V7.1100001
	c0-1.21-0.0500031-2.2599998-0.1300049-3.1500001C128.0899811,3.02,127.879982,2.27,127.6099854,1.71
	c1.4299927-0.36,2.9400024-0.93,4.5299988-1.71v18.8500004c0,0.9599991,0.0299988,1.6700001,0.1000061,2.1100006
	c0.1100006,0.9599991,0.3500061,1.9200001,0.6999969,2.8799992h-5.3700027
	c0.3399963-0.8500004,0.5499954-1.6399994,0.6500015-2.3600006H128.2299957z"/>
<path class="st0" d="M146.7100067,21.9300003c-0.4600067,0.6900005-1.0899963,1.25-1.8899994,1.6800003
	C144.0200043,24.0300007,143.0600128,24.25,141.9700012,24.25c-1.3600006,0-2.5800018-0.3600006-3.6399994-1.0699997
	s-1.8899994-1.7299995-2.4799957-3.0400009c-0.5899963-1.3099995-0.8899994-2.8199997-0.8899994-4.54
	c0-1.6300001,0.2599945-3.1199999,0.7899933-4.4800005c0.5200043-1.3500004,1.3200073-2.4300003,2.3800049-3.2399998
	s2.3500061-1.21,3.8699951-1.21s2.8500061,0.4200001,3.7700043,1.2600002
	c0.9299927,0.8400002,1.5099945,1.9499998,1.7599945,3.3400002c0.1100006,0.6000004,0.1699982,1.1599998,0.1699982,1.6800003
	v2.4499998h-9.7299957v-0.9700003h4.6300049c0.3800049,0,0.6499939-0.0299997,0.8099976-0.0799999
	c0.1600037-0.0600004,0.2700043-0.1800003,0.3399963-0.3900003c0.0700073-0.1999998,0.1000061-0.5200005,0.1000061-0.9700003
	c0-0.3999996-0.0200043-0.8900003-0.0700073-1.4800005c-0.1100006-1.1800003-0.3699951-2.0699997-0.7700043-2.6499996
	c-0.3999939-0.5799999-0.9299927-0.8699999-1.5800018-0.8699999c-0.5599976,0-1.0500031,0.2200003-1.4600067,0.6700001
	s-0.7299957,1.1099997-0.9600067,1.9800005c-0.2200012,0.8699999-0.3399963,1.9499998-0.3399963,3.2200003
	c0,1.5,0.1600037,2.7599993,0.4900055,3.79s0.8800049,1.8299999,1.6600037,2.3999996s1.8300018,0.8600006,3.1499939,0.8600006
	c0.7400055,0,1.3699951-0.0900002,1.8999939-0.2700005c0.5200043-0.1800003,1.0899963-0.4699993,1.6900024-0.8700008
	c-0.1100006,0.7600002-0.3999939,1.4899998-0.8600006,2.1800003L146.7100067,21.9300003z"/>
<path class="st0" d="M150.5200043,21.5200005c0.0899963-0.7299995,0.1300049-1.6200008,0.1300049-2.6700001v-5.6999998
	c0-1.25-0.0500031-2.1599998-0.1300049-2.7200003c-0.0899963-0.6899996-0.3000031-1.3500004-0.6399994-1.9799995
	l1.0700073-0.4699998c1.4100037-0.6500001,2.3399963-1.0999999,2.7799988-1.3400002
	c0.1999969,0.4299998,0.3500061,0.9099998,0.4400024,1.4400001c0.1600037,0.5600004,0.2299957,1.1899996,0.2299957,1.8800001
	v8.8900013c0,1.1000004,0.0599976,2.0100002,0.1699982,2.75s0.3200073,1.4899998,0.6399994,2.25h-5.3300018
	C150.2200012,23.0200024,150.4300079,22.2500019,150.5200043,21.5200005z M159.3699951,22.7700005
	c-0.0899963-0.6299992-0.1600037-1.2999992-0.1999969-2.0300007c-0.0500031-0.7299995-0.0700073-1.5-0.0700073-2.3299999v-6.3400002
	c0-0.2700005-0.0200043-0.5600004-0.0700073-0.8699999c-0.0700073-0.6700001-0.2599945-1.1599998-0.5700073-1.4800005
	c-0.3099976-0.3100004-0.7599945-0.4700003-1.3399963-0.4700003c-0.4700012,0-0.9600067,0.1300001-1.4600067,0.3999996
	c-0.5,0.2700005-0.9900055,0.7399998-1.4600067,1.4099998l-0.2700043-0.1999998
	c0.5599976-1.4099998,1.3000031-2.4499998,2.2100067-3.1400003c0.9199982-0.6799998,1.9199982-1.02,3.0200043-1.02
	s1.9299927,0.3299999,2.5700073,0.9900002c0.6399994,0.6599998,1,1.6499996,1.0899963,2.9700003
	c0.0200043,0.1599998,0.0299988,0.4099998,0.0299988,0.7699995v6.8799992c0,1.1599998,0.0800018,2.1800003,0.2299957,3.0499992
	c0.1600037,0.8899994,0.3800049,1.7199993,0.6699982,2.4799995h-4.2299957
	c-0.0899963-0.3799992-0.1499939-0.7399998-0.1699982-1.0699997L159.3699951,22.7700005z"/>
<path class="st0" d="M164.7400055,7.0100002h9.3899994l-0.1699982,1.1099997h-9.3600006l0.1300049-1.1100001L164.7400055,7.0100002z
	 M167.5899963,23.3299999c-0.5800018-0.5900002-0.9400024-1.4899998-1.0700073-2.7000008
	c-0.0200043-0.2000008-0.0299988-0.5200005-0.0299988-0.9699993V7.8499999c0-0.5599999-0.0099945-1.1300001-0.0299988-1.71
	s-0.0700073-1.23-0.1300049-1.9500003c1.2700043-0.49,2.5800018-1.1399999,3.9199982-1.95V18.539999
	c0,0.4699993,0.0299988,0.8400002,0.1000061,1.1100006c0.1799927,0.9799995,0.7200012,1.4799995,1.6100006,1.4799995
	c0.3399963,0,0.6699982-0.0699997,1.0099945-0.2199993s0.6999969-0.3700008,1.1100006-0.6900005
	c0,0.6900005-0.1799927,1.3500004-0.5399933,1.960001c-0.3600006,0.6200008-0.8600006,1.1100006-1.5099945,1.4799995
	c-0.6499939,0.3700008-1.3600006,0.5499992-2.1499939,0.5499992c-0.9400024,0-1.6999969-0.2999992-2.2799988-0.8899994
	L167.5899963,23.3299999z"/>
<path class="st0" d="M176.1799927,4.54c-0.4900055-0.48-0.7400055-1.0799999-0.7400055-1.79s0.25-1.35,0.7400055-1.83
	s1.1100006-0.72,1.8399963-0.72s1.3899994,0.24,1.8800049,0.72s0.7400055,1.09,0.7400055,1.83s-0.25,1.3099999-0.7400055,1.79
	s-1.1199951,0.7200003-1.8800049,0.7200003S176.6699829,5.0200005,176.1799927,4.54z M176.1100006,21.4799995
	c0.0899963-0.6599998,0.1300049-1.4899998,0.1300049-2.5v-5.6999998c0-1.0699997-0.0599976-1.96-0.1699982-2.6500006
	c-0.0899963-0.7799997-0.2899933-1.5200005-0.6000061-2.21c1.3600006-0.3999996,2.8699951-0.9700003,4.5299988-1.71v12.2799988
	c0,1.0699997,0.0299988,1.8700008,0.1000061,2.3800011c0.1600037,0.8700008,0.3800049,1.7000008,0.6699982,2.4799995h-5.3000031
	c0.3399963-0.9200001,0.5500031-1.7000008,0.6399994-2.3600006V21.4799995z"/>
<path class="st0" d="M183.6199951,21.5200005C183.7099915,20.7900009,183.75,19.8999996,183.75,18.8500004v-5.6999998
	c0-1.25-0.0500031-2.1599998-0.1300049-2.7200003c-0.0899963-0.6899996-0.3000031-1.3500004-0.6399994-1.9799995
	l1.0700073-0.4699998c1.4100037-0.6500001,2.3399963-1.0999999,2.7799988-1.3400002
	c0.1999969,0.4299998,0.3500061,0.9099998,0.4400024,1.4400001C187.4300079,8.6400013,187.5,9.2700005,187.5,9.960001v8.8900013
	c0,1.1000004,0.0599976,2.0100002,0.1699982,2.75s0.3200073,1.4899998,0.6399994,2.25h-5.3300018
	C183.3199921,23.0200024,183.5299988,22.2500019,183.6199951,21.5200005z M192.4799957,22.7700005
	c-0.0899963-0.6299992-0.1600037-1.2999992-0.1999969-2.0300007c-0.0500031-0.7299995-0.0700073-1.5-0.0700073-2.3299999v-6.3400002
	c0-0.2700005-0.0200043-0.5600004-0.0700073-0.8699999c-0.0700073-0.6700001-0.2599945-1.1599998-0.5700073-1.4800005
	c-0.3099976-0.3100004-0.7599945-0.4700003-1.3399963-0.4700003c-0.4700012,0-0.9600067,0.1300001-1.4600067,0.3999996
	c-0.5,0.2700005-0.9900055,0.7399998-1.4600067,1.4099998l-0.2700043-0.1999998
	c0.5599976-1.4099998,1.3000031-2.4499998,2.2100067-3.1400003c0.9199982-0.6799998,1.9199982-1.02,3.0200043-1.02
	s1.9299927,0.3299999,2.5700073,0.9900002c0.6399994,0.6599998,1,1.6499996,1.0899963,2.9700003
	c0.0200043,0.1599998,0.0299988,0.4099998,0.0299988,0.7699995v6.8799992c0,1.1599998,0.0800018,2.1800003,0.2299957,3.0499992
	c0.1600037,0.8899994,0.3800049,1.7199993,0.6699982,2.4799995h-4.2299957
	c-0.0899963-0.3799992-0.1499939-0.7399998-0.1699982-1.0699997L192.4799957,22.7700005z"/>
<path class="st0" d="M199.3200073,18.3500004c0.4900055-0.6000004,1.0599976-1.0799999,1.7100067-1.4300003
	c0.6499939-0.3500004,1.4799957-0.7199993,2.4799957-1.1199999c0.0399933,0,0.1100006-0.0200005,0.1999969-0.0699997
	c0.8500061-0.3400002,1.5299988-0.6300001,2.0500031-0.8900003c0.5099945-0.2600002,0.8899994-0.4899998,1.1199951-0.6999998
	s0.3500061-0.4200001,0.3500061-0.6199999v-1.0100002c0-1.3400002-0.1799927-2.4400005-0.5399933-3.29
	s-1.0299988-1.27-2.0099945-1.27c-0.6300049,0-1.1100006,0.1900001-1.4400024,0.5700002
	c-0.3399963,0.3800001-0.5,0.9300003-0.5,1.6400003c0,0.96,0.2299957,1.9899998,0.6999969,3.0900002l-4.1600037-0.2299995
	v-0.9399996c0-0.96,0.2200012-1.8500004,0.6699982-2.6700001s1.1300049-1.48,2.0500031-1.98s2.0500031-0.75,3.3899994-0.75
	c1.7899933,0,3.1199951,0.4299998,3.9900055,1.27c0.8699951,0.8500004,1.3999939,2.0500002,1.5800018,3.5900002
	c0.0200043,0.54,0.0500031,1.0799999,0.0700073,1.6400003v5.4300003c0,1.2999992,0.0700073,2.289999,0.1999969,2.9899998
	c0.1300049,0.7399998,0.3699951,1.4899998,0.6999969,2.25h-4.0599976c-0.1999969-0.4699993-0.3399963-0.8199997-0.3999939-1.0400009
	c-0.0700073-0.25-0.1199951-0.4899998-0.1699982-0.7399998s-0.0700073-0.4799995-0.0700073-0.7000008v-4.1900005
	c0-0.25-0.0299988-0.4200001-0.0800018-0.5200005c-0.0599976-0.1000004-0.1600037-0.1700001-0.3000031-0.2199993
	c-0.1499939-0.0400009-0.3899994-0.0699997-0.7200012-0.0699997c-1.3899994,0-2.3500061,0.2099991-2.8999939,0.6200008
	c-0.5500031,0.4099998-0.8200073,1.0900002-0.8200073,2.0300007c0,0.7600002,0.2100067,1.3700008,0.6199951,1.8299999
	c0.4100037,0.4599991,1.0099945,0.6900005,1.7899933,0.6900005c1.0099945,0,1.9299927-0.3600006,2.7799988-1.0699997
	L207.5,21.1400032c-0.5599976,0.9400005-1.2799988,1.6700001-2.1600037,2.2000008s-1.8500061,0.7900009-2.8999939,0.7900009
	c-1.1600037,0-2.1000061-0.3299999-2.8000031-0.9899998s-1.0599976-1.5300007-1.0599976-2.6000004
	c0-0.8500004,0.25-1.5799999,0.7400055-2.1800003V18.3500004z"/>
<path class="st0" d="M219.5399933,21.1299992c0.1300049-0.8899994,0.1999969-1.8299999,0.1999969-2.8199997V7.5500002
	c0-0.9400001-0.0500031-1.8000002-0.1300049-2.5799999c-0.1799927-1.05-0.4400024-2.02-0.7700043-2.9200001h5.5299988
	c-0.3399963,0.8699999-0.5500031,1.73-0.6499939,2.5799999c-0.1000061,0.8499999-0.1499939,1.8200002-0.1499939,2.9200001
	v11.0699987c0,0.9200001,0.0399933,1.7299995,0.1300049,2.4500008c0.1600037,1.0499992,0.3899994,1.9799995,0.6999969,2.7800007
	h-5.5700073c0.3399963-0.9200001,0.5700073-1.8199997,0.6999969-2.7199993L219.5399933,21.1299992z M222.4900055,11.8699999
	h8.5200043v1.1099997h-8.5200043V11.8699999z M229.8200073,21.25c0.1000061-0.8600006,0.1499939-1.8400002,0.1499939-2.9300003
	V7.1799998c0-1.0499997-0.0299988-1.8299999-0.1000061-2.3499999c-0.1600037-1.01-0.3899994-1.9299998-0.6999969-2.78h5.5299988
	C234.3600006,2.97,234.1299896,3.8599999,234,4.73c-0.1300049,0.8699999-0.1999969,1.8099999-0.1999969,2.8200002v10.7699995
	c0,1.0499992,0.0599976,1.9599991,0.1699982,2.7199993c0.1600037,1.0699997,0.3999939,2.0100002,0.7400055,2.8199997h-5.5
	c0.3099976-0.8700008,0.5200043-1.7399998,0.6199951-2.6000004L229.8200073,21.25z"/>
<path class="st0" d="M240.2200012,23.1200008c-1.0200043-0.75-1.8099976-1.789999-2.3800049-3.1200008
	c-0.5700073-1.3299999-0.8500061-2.8400002-0.8500061-4.54s0.3000031-3.3100004,0.8899994-4.6500006
	c0.5899963-1.3299999,1.4299927-2.3599997,2.5-3.0900002s2.3000031-1.0900002,3.6900024-1.0900002
	s2.5200043,0.3699999,3.5399933,1.1199999c1.0200043,0.75,1.8099976,1.79,2.3800049,3.1199999s0.8500061,2.8500004,0.8500061,4.54
	s-0.3000031,3.3100004-0.8899994,4.6400003s-1.4199982,2.3600006-2.4799957,3.0900002s-2.3000031,1.0900002-3.7100067,1.0900002
	s-2.5200043-0.3700008-3.5399933-1.1200008V23.1200008z M245.6000061,22.1499996
	c0.3800049-0.4799995,0.6600037-1.1900005,0.8500061-2.1100006c0.1900024-0.9300003,0.2899933-2.0599995,0.2899933-3.3999996
	c0-2.3900003-0.2700043-4.4300003-0.8099976-6.1000004c-0.5399933-1.6800003-1.3200073-2.5200005-2.3500061-2.5200005
	c-0.5800018,0-1.0599976,0.2399998-1.4299927,0.7200003c-0.3699951,0.4799995-0.6399994,1.1899996-0.8200073,2.1099997
	s-0.2700043,2.0599995-0.2700043,3.3999996c0,2.4099998,0.2599945,4.460001,0.7899933,6.1200008s1.3000031,2.5,2.3300018,2.5
	c0.5599976,0,1.0299988-0.2399998,1.4100037-0.7199993H245.6000061z"/>
<path class="st0" d="M262.8900146,23.1100006C262.0300293,23.8700008,260.9300232,24.25,259.5900269,24.25
	s-2.4200134-0.3500004-3.4400024-1.0599995c-1.0200043-0.7000008-1.8200073-1.7000008-2.3999939-2.9899998
	c-0.5800018-1.2900009-0.8699951-2.7600002-0.8699951-4.4099998s0.3099976-3.1999998,0.9400024-4.5799999
	c0.6300049-1.3699999,1.5500031-2.4700003,2.7799988-3.29c1.230011-0.8200002,2.7099915-1.2200003,4.4299927-1.2200003
	c0.6700134,0,1.2600098,0.0599999,1.7799988,0.1700001c0.5100098,0.1100001,1.0299988,0.2800002,1.5400085,0.5l-0.9400024,5
	c-0.7799988-1.3199997-1.5400085-2.3099995-2.2600098-2.9899998c-0.730011-0.6700001-1.4400024-1.0100002-2.1300049-1.0100002
	c-0.4899902,0-0.9200134,0.1499996-1.269989,0.4399996c-0.3599854,0.29-0.6400146,0.79-0.8599854,1.4899998
	c-0.2099915,0.6999998-0.3200073,1.6499996-0.3200073,2.8299999c0,1.8100004,0.1900024,3.3000002,0.5700073,4.46
	s0.9299927,2.0200005,1.6600037,2.5699997s1.6000061,0.8199997,2.6300049,0.8199997
	c0.4700012,0,0.8999939-0.0499992,1.2900085-0.1499996s0.769989-0.25,1.1199951-0.4500008
	c0.25-0.1599998,0.480011-0.3099995,0.7000122-0.4699993c-0.25,1.3600006-0.7999878,2.4300003-1.6600037,3.1900005
	L262.8900146,23.1100006z M259.5899963,1.95v3.8599999c-1.6499939-1.97-3.1900024-3.73-4.5899963-5.3000002
	C255,0.5099998,259.5899963,1.9499998,259.5899963,1.95z M259.5899963,5.8000002V1.95L264.1799927,0.51
	c-1.8999939,2.1500001-3.4299927,3.9100001-4.5899963,5.3000002V5.8000002z"/>
<path class="st0" d="M277.7799988,21.9300003c-0.4599915,0.6900005-1.0899963,1.25-1.8900146,1.6800003
	C275.0899963,24.0300007,274.1299744,24.25,273.039978,24.25c-1.3599854,0-2.5799866-0.3600006-3.6400146-1.0699997
	s-1.8900146-1.7299995-2.480011-3.0400009c-0.5899963-1.3099995-0.8900146-2.8199997-0.8900146-4.54
	c0-1.6300001,0.2600098-3.1199999,0.7900085-4.4800005c0.519989-1.3500004,1.3200073-2.4300003,2.3800049-3.2399998
	s2.3500061-1.21,3.8699951-1.21s2.8500061,0.4200001,3.769989,1.2600002
	c0.9299927,0.8400002,1.5100098,1.9499998,1.7600098,3.3400002c0.1099854,0.6000004,0.1700134,1.1599998,0.1700134,1.6800003
	v2.4499998h-9.730011v-0.9700003h4.6300049c0.3800049,0,0.6499939-0.0299997,0.8099976-0.0799999
	c0.1600037-0.0600004,0.269989-0.1800003,0.3399963-0.3900003c0.0700073-0.1999998,0.1000061-0.5200005,0.1000061-0.9700003
	c0-0.3999996-0.019989-0.8900003-0.0700073-1.4800005c-0.1099854-1.1800003-0.3699951-2.0699997-0.769989-2.6499996
	s-0.9299927-0.8699999-1.5799866-0.8699999c-0.5599976,0-1.0499878,0.2200003-1.4599915,0.6700001
	s-0.730011,1.1099997-0.9599915,1.9800005c-0.2200012,0.8699999-0.3399963,1.9499998-0.3399963,3.2200003
	c0,1.5,0.1600037,2.7599993,0.4899902,3.79s0.8800049,1.8299999,1.6600037,2.3999996s1.8299866,0.8600006,3.1499939,0.8600006
	c0.7399902,0,1.3699951-0.0900002,1.8999939-0.2700005c0.519989-0.1800003,1.0899963-0.4699993,1.6900024-0.8700008
	c-0.1099854,0.7600002-0.3999939,1.4899998-0.8599854,2.1800003L277.7799988,21.9300003z"/>
<path class="st0" d="M293.4299927,8.8400002c-0.3099976,0.6800003-0.730011,1.71-1.2399902,3.0699997L292.0899963,12.21
	L288,23.8500004h-2.0499878L281.8200073,12.21c-0.0499878-0.1300001-0.0899963-0.2600002-0.1300049-0.3699999
	c-0.4700012-1.3000002-0.8599854-2.29-1.1600037-2.9700003c-0.2999878-0.6800003-0.6799927-1.3000002-1.1199951-1.8600001h6.3099976
	c-0.0899963,0.1999998-0.1600037,0.4699998-0.2000122,0.8000002c-0.0499878,0.3399997-0.0700073,0.7000003-0.0700073,1.1100001
	c0,1.1400003,0.1400146,2.1800003,0.4400024,3.1199999l2.7200012,8.8499994h-0.7399902l2.7799988-8.8500004
	c0.1300049-0.4200001,0.230011-0.8699999,0.2999878-1.3199997c0.0700073-0.46,0.1000061-0.9099998,0.1000061-1.3599997
	c0-1.0100002-0.1199951-1.79-0.3699951-2.3499999h3.9599915C294.1499939,7.5499997,293.7499695,8.1599998,293.4299927,8.8400002z"/>
<path class="st0" d="M295.6799927,18.3500004c0.4899902-0.6000004,1.0599976-1.0799999,1.7099915-1.4300003
	s1.480011-0.7199993,2.480011-1.1199999c0.0400085,0,0.1099854-0.0200005,0.2000122-0.0699997
	c0.8500061-0.3400002,1.5299988-0.6300001,2.0499878-0.8900003c0.5100098-0.2600002,0.8900146-0.4899998,1.1199951-0.6999998
	c0.230011-0.21,0.3500061-0.4200001,0.3500061-0.6199999v-1.0100002c0-1.3400002-0.1799927-2.4400005-0.5400085-3.29
	s-1.0299988-1.27-2.0100098-1.27c-0.6300049,0-1.1099854,0.1900001-1.4400024,0.5700002
	c-0.3399963,0.3800001-0.5,0.9300003-0.5,1.6400003c0,0.96,0.230011,1.9899998,0.7000122,3.0900002l-4.1600037-0.2299995v-0.9399996
	c0-0.96,0.2200012-1.8500004,0.6700134-2.6700001s1.1300049-1.48,2.0499878-1.98c0.9200134-0.5,2.0499878-0.75,3.3900146-0.75
	c1.7900085,0,3.1199951,0.4299998,3.9899902,1.27c0.8699951,0.8500004,1.3999939,2.0500002,1.5799866,3.5900002
	c0.019989,0.54,0.0499878,1.0799999,0.0700073,1.6400003v5.4300003c0,1.2999992,0.0700073,2.289999,0.2000122,2.9899998
	c0.1300049,0.7399998,0.3699951,1.4899998,0.7000122,2.25h-4.0599976c-0.2000122-0.4699993-0.3399963-0.8199997-0.3999939-1.0400009
	c-0.0700073-0.25-0.1199951-0.4899998-0.1700134-0.7399998c-0.0499878-0.25-0.0700073-0.4799995-0.0700073-0.7000008v-4.1900005
	c0-0.25-0.0299988-0.4200001-0.0799866-0.5200005c-0.0599976-0.1000004-0.1600037-0.1700001-0.2999878-0.2199993
	c-0.1499939-0.0400009-0.3900146-0.0699997-0.7200012-0.0699997c-1.3900146,0-2.3500061,0.2099991-2.8999939,0.6200008
	c-0.5499878,0.4099998-0.8200073,1.0900002-0.8200073,2.0300007c0,0.7600002,0.2099915,1.3700008,0.6199951,1.8299999
	s1.0100098,0.6900005,1.7900085,0.6900005c1.0100098,0,1.9299927-0.3600006,2.7799988-1.0699997l-0.1000061,0.6700001
	c-0.5599976,0.9400005-1.2799988,1.6700001-2.1600037,2.2000008s-1.8500061,0.7900009-2.8999939,0.7900009
	c-1.1600037,0-2.1000061-0.3299999-2.7999878-0.9899998c-0.7000122-0.6599998-1.0599976-1.5300007-1.0599976-2.6000004
	c0-0.8500004,0.25-1.5799999,0.7399902-2.1800003L295.6799927,18.3500004z"/>
<path class="st0" d="M310.769989,21.4799995c0.0899963-0.6599998,0.1300049-1.4899998,0.1300049-2.5v-5.2700005
	c0-1.1800003-0.1099854-2.21-0.3399963-3.0900002c-0.1300049-0.7799997-0.3900146-1.5100002-0.769989-2.1800003
	c1.6499939-0.7200003,2.9500122-1.3200002,3.8900146-1.8099999c0.269989,0.4900002,0.5,1.1599998,0.7000122,2.0099998
	c0.2000122,0.8299999,0.3099976,1.5199995,0.3399963,2.0799999v0.3699999h-0.2999878
	c0.2200012-1.1400003,0.5-2.0299997,0.8399963-2.6700001s0.769989-1.0900002,1.3099976-1.3600001
	s1.2200012-0.4000001,2.0499878-0.4000001c0.5400085,0,1.0100098,0.0599999,1.4100037,0.1700001l-0.7000122,5.1999998
	c-0.5599976-0.8299999-1.0799866-1.4300003-1.5799866-1.8100004c-0.4899902-0.3800001-0.9599915-0.5699997-1.4100037-0.5699997
	c-0.5400085,0-0.9500122,0.3199997-1.2200012,0.9700003c-0.2799988,0.6499996-0.4200134,1.8800001-0.4200134,3.6899996v4.9599991
	c0,0.9200001,0.0599976,1.6900005,0.1700134,2.3099995c0.0899963,0.6499996,0.2999878,1.3999996,0.6400146,2.25h-5.3299866
	c0.3099976-0.9200001,0.5100098-1.7000008,0.6000061-2.3600006L310.769989,21.4799995z"/>
<path class="st0" d="M72.3000031,42.4900017c0,1.3499985-1.0100021,2.6399994-2.7200012,2.6399994h-3.8000031v-9.3699989h3.5100021
	c1.5400009,0,2.5199966,0.9199982,2.5199966,2.3899994c0,0.8199997-0.3000031,1.6500015-1.1800003,1.9900017
	c1.0999985,0.2400017,1.6800003,1.3300018,1.6800003,2.3499985H72.3000031z M69.2699966,36.9000015h-2.2600021v2.7599983h2.3000031
	c0.8399963,0,1.2600021-0.5800018,1.2600021-1.3899994S70.1200027,36.9000015,69.2699966,36.9000015z M69.3199997,43.9799995
	c1.1500015,0,1.75-0.7299995,1.75-1.6100006s-0.5400009-1.6300011-1.6800003-1.6300011h-2.3799973v3.2400017H69.3199997z"/>
<path class="st0" d="M73.5899963,41.9399986c0-2.0099983,1.5-3.329998,3.3000031-3.329998s3.3199997,1.3199997,3.3199997,3.3300018
	s-1.5199966,3.3499985-3.3199997,3.3499985S73.5899963,43.9599991,73.5899963,41.9399986z M79.0299988,41.9399986
	c0-1.3100014-0.9700012-2.2200012-2.1399994-2.2200012s-2.1100006,0.9099998-2.1100006,2.2200012
	s0.9599991,2.2299995,2.1100006,2.2299995S79.0299988,43.2599983,79.0299988,41.9399986z"/>
<path class="st0" d="M86.8300018,35.3199997h1.1800003v9.8100014h-1.1800003v-0.9900017
	c-0.4199982,0.7200012-1.3399963,1.1599998-2.25,1.1599998c-1.7300034,0-3.1699982-1.3499985-3.1699982-3.3499985
	s1.4199982-3.329998,3.1500015-3.329998c0.9499969,0,1.8399963,0.4099998,2.2600021,1.1599998v-4.4500008L86.8300018,35.3199997z
	 M86.8300018,41.9300003c0-1.3699989-1.1100006-2.2000008-2.1500015-2.2000008
	c-1.1500015,0-2.0699997,0.9199982-2.0699997,2.2000008s0.9199982,2.2400017,2.0699997,2.2400017
	S86.8300018,43.2900009,86.8300018,41.9300003z"/>
<path class="st0" d="M94.3799973,38.7700005h1.2699966l-3.9199982,9.4399986h-1.25l1.3300018-3.2799988l-2.5400009-6.1599998
	h1.2699966l1.9100037,4.6800003l1.9400024-4.6800003H94.3799973z"/>
<path class="st0" d="M99.9100037,40.4599991c0-2.6699982,2.0599976-4.8699989,4.7099991-4.8699989
	s4.7399979,2.2000008,4.7399979,4.8699989s-2.0699997,4.8300018-4.7399979,4.8300018S99.9100037,43.1100006,99.9100037,40.4599991z
	 M108.1200027,40.4599991c0-2.0099983-1.5199966-3.7299995-3.5-3.7299995s-3.4800034,1.7099991-3.4800034,3.7299995
	s1.5199966,3.6899986,3.4800034,3.6899986S108.1200027,42.4599991,108.1200027,40.4599991z"/>
<path class="st0" d="M115.0400009,38.8600006l-0.1900024,1.1199989c-0.3399963-0.1599998-0.6800003-0.2200012-0.9199982-0.2200012
	c-1.2600021,0-1.7600021,1.3699989-1.7600021,3.0499992v2.3300018h-1.1900024v-6.3499985h1.1900024v1.4399986
	c0.3199997-1.1199989,0.9300003-1.6100006,1.7699966-1.6100006
	C114.3899918,38.6199989,114.8499985,38.7399979,115.0400009,38.8600006z"/>
<path class="st0" d="M115.9700012,36.4300003c0-0.4500008,0.3799973-0.7900009,0.8300018-0.7900009
	s0.8399963,0.3400002,0.8399963,0.7900009s-0.3799973,0.7900009-0.8399963,0.7900009S115.9700012,36.8800011,115.9700012,36.4300003
	z M116.2099991,45.1300011v-6.3499985h1.1800003v6.3499985H116.2099991z"/>
<path class="st0" d="M125.3799973,42.4599991h-5.1399994c0.1800003,1.1300011,0.9899979,1.7099991,2.0699997,1.7099991
	c0.7699966,0,1.4800034-0.3499985,1.8399963-0.9900017l1.0100021,0.4099998
	c-0.5400009,1.0999985-1.6800003,1.7000008-2.9000015,1.7000008c-1.8000031,0-3.25-1.3499985-3.25-3.3600006
	s1.4499969-3.3199997,3.25-3.3199997s3.1399994,1.3100014,3.1399994,3.3199997c0,0.1800003-0.0100021,0.3499985-0.0299988,0.5299988
	L125.3799973,42.4599991z M124.2300034,41.4399986c-0.1500015-1.0900002-0.9199982-1.7099991-1.9599991-1.7099991
	s-1.8300018,0.5699997-2.0199966,1.7099991C120.2500076,41.4399986,124.230011,41.4399986,124.2300034,41.4399986z"/>
<path class="st0" d="M132.8300018,41.4500008v3.670002h-1.1799927v-3.6100006c0-1.0600014-0.6499939-1.7400017-1.5299988-1.7400017
	s-1.9400024,0.5299988-1.9400024,1.9099998v3.4399986h-1.1800003v-6.3499985h1.1800003v0.9700012
	c0.3800049-0.7799988,1.4100037-1.1300011,2.1000061-1.1300011c1.5700073,0,2.5599976,1.0600014,2.5399933,2.8400002H132.8300018z"
	/>
<path class="st0" d="M137.7400055,38.7700005v1.0200005h-1.3699951v5.3300018h-1.1799927v-5.3300018h-1.1399994v-1.0200005
	h1.1399994v-2.3899994h1.1799927v2.3899994H137.7400055z"/>
<path class="st0" d="M144.8600006,42.4599991h-5.1399994c0.1799927,1.1300011,0.9900055,1.7099991,2.0700073,1.7099991
	c0.7700043,0,1.4799957-0.3499985,1.8399963-0.9900017l1.0099945,0.4099998
	c-0.5399933,1.0999985-1.6799927,1.7000008-2.8999939,1.7000008c-1.8000031,0-3.25-1.3499985-3.25-3.3600006
	s1.4499969-3.3199997,3.25-3.3199997s3.1399994,1.3100014,3.1399994,3.3199997c0,0.1800003-0.0099945,0.3499985-0.0299988,0.5299988
	L144.8600006,42.4599991z M143.7100067,41.4399986c-0.1499939-1.0900002-0.9199982-1.7099991-1.9600067-1.7099991
	s-1.8300018,0.5699997-2.0200043,1.7099991h3.9799957H143.7100067z"/>
<path class="st0" d="M151.4900055,35.3199997h1.1799927v9.8100014h-1.1799927v-0.9900017
	c-0.4199982,0.7200012-1.3399963,1.1599998-2.25,1.1599998c-1.7299957,0-3.1699982-1.3499985-3.1699982-3.3499985
	s1.4199982-3.329998,3.1499939-3.329998c0.9499969,0,1.8399963,0.4099998,2.2599945,1.1599998v-4.4500008L151.4900055,35.3199997z
	 M151.4900055,41.9300003c0-1.3699989-1.1100006-2.2000008-2.1499939-2.2000008
	c-1.1499939,0-2.0700073,0.9199982-2.0700073,2.2000008s0.9199982,2.2400017,2.0700073,2.2400017
	S151.4900055,43.2900009,151.4900055,41.9300003z"/>
<path class="st0" d="M162.1300049,35.75c1.9799957,0,2.7700043,1.4700012,2.7700043,2.9300003
	s-0.8000031,2.9199982-2.7700043,2.9199982h-2.4799957v3.5200005h-1.2299957V35.75h3.7100067H162.1300049z M162.0500031,40.4500008
	c1.1600037,0,1.6199951-0.8699989,1.6199951-1.7700005s-0.4499969-1.7799988-1.5599976-1.7799988h-2.4600067v3.5499992h2.3999939
	H162.0500031z"/>
<path class="st0" d="M165.7700043,43.2599983h1.1000061C166.8800049,43.7999992,167.3600159,44.25,168.1300049,44.25
	s1.2700043-0.3899994,1.2700043-0.9099998c0-0.4799995-0.3699951-0.7200012-0.8699951-0.8300018l-0.8699951-0.2000008
	c-1.0599976-0.2900009-1.6600037-0.7999992-1.6600037-1.8199997s0.8899994-1.8800011,2.1699982-1.8800011
	c1.0700073,0,2.1799927,0.5699997,2.1799927,1.8499985h-1.1399994c-0.0099945-0.4900017-0.5099945-0.8199997-1.0099945-0.8199997
	c-0.6100006,0-1.0200043,0.3899994-1.0200043,0.8800011c0,0.4399986,0.4100037,0.6699982,0.8099976,0.7599983l0.9299927,0.2299995
	c1.3099976,0.3300018,1.6499939,1.1199989,1.6499939,1.8400002c0,1.1800003-1.1399994,1.9300003-2.4499969,1.9300003
	c-1.1399994,0-2.3000031-0.7200012-2.3500061-2.0299988L165.7700043,43.2599983z"/>
<path class="st0" d="M176.3000031,38.7700005h1.2700043l-3.9199982,9.4399986h-1.25l1.3300018-3.2799988l-2.5399933-6.1599998
	h1.2700043l1.9100037,4.6800003l1.9400024-4.6800003H176.3000031z"/>
<path class="st0" d="M178.1600037,41.9399986c0-2.0099983,1.5800018-3.329998,3.3999939-3.329998
	c0.9900055,0,1.8500061,0.3899994,2.4100037,1.0099983l-0.7400055,0.7799988
	c-0.3899994-0.4099998-0.9600067-0.6699982-1.6199951-0.6699982c-1.25,0-2.25,0.9099998-2.25,2.2200012s1,2.2299995,2.25,2.2299995
	c0.6600037,0,1.2299957-0.2599983,1.6199951-0.6699982l0.7400055,0.7799988
	c-0.5500031,0.6300011-1.4199982,1.0099983-2.4100037,1.0099983c-1.8099976,0-3.3999939-1.3300018-3.3999939-3.3499985V41.9399986z"
	/>
<path class="st0" d="M191.2799988,41.4500008v3.670002h-1.1799927v-3.6100006c0-1.0600014-0.6499939-1.7400017-1.5299988-1.7400017
	s-1.9400024,0.5299988-1.9400024,1.9099998v3.4399986h-1.1799927v-9.8100014h1.1799927v4.4199982
	c0.3800049-0.7799988,1.4100037-1.1300011,2.1000061-1.1300011c1.5700073,0,2.5599976,1.0600014,2.5399933,2.8400002
	L191.2799988,41.4500008z"/>
<path class="st0" d="M192.8099976,41.9399986c0-2.0099983,1.5-3.329998,3.3000031-3.329998s3.3200073,1.3199997,3.3200073,3.3300018
	s-1.5200043,3.3499985-3.3200073,3.3499985S192.8099976,43.9599991,192.8099976,41.9399986z M198.25,41.9399986
	c0-1.3100014-0.9700012-2.2200012-2.1399994-2.2200012S194,40.6299973,194,41.9399986s0.9600067,2.2299995,2.1100006,2.2299995
	S198.25,43.2599983,198.25,41.9399986z"/>
<path class="st0" d="M203.9700012,38.7700005v1.0200005h-1.3699951v5.3300018h-1.1799927v-5.3300018h-1.1399994v-1.0200005
	h1.1399994v-2.3899994h1.1799927v2.3899994H203.9700012z"/>
<path class="st0" d="M211.1000061,41.4500008v3.670002h-1.1799927v-3.6100006c0-1.0600014-0.6499939-1.7400017-1.5299988-1.7400017
	s-1.9400024,0.5299988-1.9400024,1.9099998v3.4399986h-1.1799927v-9.8100014h1.1799927v4.4199982
	c0.3800049-0.7799988,1.4100037-1.1300011,2.1000061-1.1300011c1.5700073,0,2.5599976,1.0600014,2.5399933,2.8400002
	L211.1000061,41.4500008z"/>
<path class="st0" d="M219.0099945,42.4599991h-5.1399994c0.1799927,1.1300011,0.9900055,1.7099991,2.0700073,1.7099991
	c0.7700043,0,1.4799957-0.3499985,1.8399963-0.9900017l1.0099945,0.4099998
	c-0.5399933,1.0999985-1.6799927,1.7000008-2.8999939,1.7000008c-1.8000031,0-3.25-1.3499985-3.25-3.3600006
	s1.4499969-3.3199997,3.25-3.3199997s3.1399994,1.3100014,3.1399994,3.3199997c0,0.1800003-0.0099945,0.3499985-0.0299988,0.5299988
	L219.0099945,42.4599991z M217.8600006,41.4399986c-0.1499939-1.0900002-0.9199982-1.7099991-1.9600067-1.7099991
	s-1.8300018,0.5699997-2.0200043,1.7099991h3.9799957H217.8600006z"/>
<path class="st0" d="M224.6999969,38.8600006l-0.1900024,1.1199989c-0.3399963-0.1599998-0.6799927-0.2200012-0.9199982-0.2200012
	c-1.2599945,0-1.7599945,1.3699989-1.7599945,3.0499992v2.3300018h-1.1900024v-6.3499985h1.1900024v1.4399986
	c0.3200073-1.1199989,0.9299927-1.6100006,1.7700043-1.6100006c0.4499969,0,0.9100037,0.1199989,1.1000061,0.2400017H224.6999969z"
	/>
<path class="st0" d="M230.6399994,38.7700005h1.1799927v6.3499985h-1.1799927v-1.1300011
	c-0.4199982,0.7599983-1.3000031,1.2900009-2.3099976,1.2900009c-1.6499939,0-3.1000061-1.4000015-3.1000061-3.3499985
	s1.3699951-3.3300018,3.1499939-3.3300018c0.9499969,0,1.8399963,0.4099998,2.2599945,1.1599998v-0.9900017L230.6399994,38.7700005z
	 M230.6399994,41.9399986c0-1.3100014-1.1000061-2.2200012-2.1499939-2.2200012
	c-1.1499939,0-2.0700073,1.0200005-2.0700073,2.2200012s0.9199982,2.2299995,2.0800018,2.2299995
	S230.6399994,43.2299995,230.6399994,41.9399986z"/>
<path class="st0" d="M240.4700012,41.9599991c0,2.0099983-1.4199982,3.3300018-3.1499939,3.3300018
	c-0.9499969,0-1.8399963-0.4099998-2.2599945-1.1599998v4.079998h-1.1799927v-9.4399986h1.1799927v0.9900017
	c0.4199982-0.7200012,1.3399963-1.1599998,2.25-1.1599998c1.7299957,0,3.1699982,1.3499985,3.1699982,3.3499985
	L240.4700012,41.9599991z M239.2799988,41.9700012c0-1.2599983-0.9199982-2.25-2.0800018-2.25s-2.1399994,0.8899994-2.1399994,2.25
	s1.1100006,2.2000008,2.1399994,2.2000008C238.3600006,44.170002,239.2799988,43.2500038,239.2799988,41.9700012z"/>
<path class="st0" d="M241.8600006,36.4300003c0-0.4500008,0.3800049-0.7900009,0.8300018-0.7900009
	s0.8399963,0.3400002,0.8399963,0.7900009s-0.3800049,0.7900009-0.8399963,0.7900009S241.8600006,36.8800011,241.8600006,36.4300003
	z M242.1100006,45.1300011v-6.3499985h1.1799927v6.3499985H242.1100006z"/>
<path class="st0" d="M244.8300018,43.2599983h1.1000061C245.9400024,43.7999992,246.4200134,44.25,247.1900024,44.25
	s1.2700043-0.3899994,1.2700043-0.9099998c0-0.4799995-0.3699951-0.7200012-0.8699951-0.8300018l-0.8699951-0.2000008
	c-1.0599976-0.2900009-1.6600037-0.7999992-1.6600037-1.8199997s0.8899994-1.8800011,2.1699982-1.8800011
	c1.0700073,0,2.1799927,0.5699997,2.1799927,1.8499985h-1.1399994c-0.0099945-0.4900017-0.5099945-0.8199997-1.0099945-0.8199997
	c-0.6100006,0-1.0200043,0.3899994-1.0200043,0.8800011c0,0.4399986,0.4100037,0.6699982,0.8099976,0.7599983l0.9299927,0.2299995
	c1.3099976,0.3300018,1.6499939,1.1199989,1.6499939,1.8400002c0,1.1800003-1.1399994,1.9300003-2.4499969,1.9300003
	c-1.1399994,0-2.3000031-0.7200012-2.3500061-2.0299988L244.8300018,43.2599983z"/>
<path class="st0" d="M254.25,38.7700005v1.0200005h-1.3699951v5.3300018h-1.1799927v-5.3300018h-1.1399994v-1.0200005h1.1399994
	v-2.3899994h1.1799927v2.3899994H254.25z"/>
</svg>
