<svg width="266" height="57" viewBox="0 0 266 57" fill="none" xmlns="http://www.w3.org/2000/svg">
<g clip-path="url(#clip0_336_1240)">
<path d="M16.2819 17.6089C16.0687 17.0091 15.6688 16.6092 15.0822 16.4359C14.4957 16.2493 13.7359 16.1693 12.7895 16.1693H10.4034L14.1091 11.0506C14.5357 10.4774 14.9489 9.90418 15.3755 9.33099C16.5219 7.75805 17.5616 6.43838 18.4814 5.37198C19.4012 4.30558 20.3609 3.34583 21.3607 2.49271H15.0689C15.0956 3.78571 14.9356 5.01207 14.5757 6.13179C14.2158 7.26484 13.5759 8.51786 12.6695 9.91751L6.56438 19.2752V9.91751C6.56438 8.53119 6.64436 7.25151 6.81765 6.06514C6.99094 4.8921 7.29753 3.6924 7.75075 2.49271H0.0326843C0.485904 3.73239 0.805823 4.8921 0.979113 5.97183C1.19239 7.23818 1.29903 8.55785 1.29903 9.91751V24.4472C1.29903 25.7802 1.20572 27.0465 1.03243 28.2462C0.845813 29.4593 0.539224 30.6723 0.0860043 31.912H7.73742C7.2842 30.7656 6.95095 29.4326 6.73767 27.9263C6.6177 27.2332 6.55105 26.1934 6.55105 24.8071V21.5013L9.48364 17.4356C9.56362 17.4356 9.65693 17.4489 9.72358 17.4756C9.96352 17.5423 10.1635 17.7022 10.3368 17.9688C10.4967 18.2354 10.6967 18.6886 10.8966 19.3285L14.9223 31.912H21.7606C20.7608 30.619 19.9477 28.9394 19.3212 26.8866L16.2819 17.6089Z" fill="#E58B76"/>
<path d="M40.1426 24.8604V17.5289C40.116 16.7691 40.076 16.036 40.0493 15.3162C39.8094 13.2367 39.1029 11.6237 37.9165 10.4774C36.7435 9.33099 34.9439 8.7578 32.5312 8.7578C30.7183 8.7578 29.1987 9.09105 27.959 9.77088C26.7193 10.4507 25.7995 11.3438 25.1997 12.4369C24.5999 13.5433 24.2933 14.743 24.2933 16.036V17.3023L29.9052 17.6222C29.2653 16.1426 28.9588 14.7563 28.9588 13.45C28.9588 12.4902 29.1854 11.7437 29.6386 11.2372C30.0918 10.7173 30.745 10.464 31.5848 10.464C32.9178 10.464 33.8109 11.0372 34.3041 12.1836C34.784 13.33 35.0239 14.8096 35.0239 16.6225V17.9822C35.0239 18.2487 34.8639 18.5287 34.544 18.8219C34.2241 19.1152 33.7176 19.4218 33.0244 19.7684C32.3312 20.1149 31.4115 20.5148 30.2651 20.9681C30.1451 21.0347 30.0518 21.0614 29.9985 21.0614C28.6388 21.6079 27.5191 22.1144 26.6527 22.581C25.7729 23.0475 25.0131 23.6874 24.3466 24.5005C23.6801 25.3136 23.3468 26.3001 23.3468 27.4464C23.3468 28.8994 23.8267 30.0591 24.7731 30.9522C25.7196 31.8453 26.9859 32.2852 28.5589 32.2852C29.9718 32.2852 31.2782 31.9253 32.4779 31.2188C33.5043 30.6056 34.3574 29.7792 35.0506 28.7661C35.0506 29.006 35.0772 29.2593 35.1172 29.5259C35.1839 29.8592 35.2505 30.1924 35.3438 30.5257C35.4371 30.8323 35.6104 31.2988 35.8903 31.9253H41.369C40.9158 30.8989 40.5958 29.8858 40.4225 28.8861C40.2359 27.953 40.1559 26.6067 40.1559 24.8604H40.1426ZM31.7714 28.7928C30.7183 28.7928 29.9052 28.4862 29.3453 27.8597C28.7855 27.2465 28.5055 26.42 28.5055 25.3936C28.5055 24.1273 28.8788 23.2075 29.6119 22.661C30.3451 22.1011 31.6514 21.8212 33.5309 21.8212C33.9842 21.8212 34.3041 21.8478 34.504 21.9145C34.704 21.9811 34.8373 22.0745 34.9173 22.2078C34.9972 22.3411 35.0239 22.581 35.0239 22.9142V27.713C34.0108 28.4195 32.9311 28.8061 31.7581 28.8061L31.7714 28.7928Z" fill="#E58B76"/>
<path d="M52.5395 9.27767C51.8197 9.63758 51.2332 10.2508 50.78 11.1172C50.4734 11.6904 50.2068 12.4369 49.9668 13.33C49.8868 12.7568 49.7669 12.1303 49.5936 11.4105C49.327 10.2641 49.0071 9.35765 48.6472 8.69115C47.3808 9.35765 45.6346 10.1708 43.3951 11.1305C43.915 12.037 44.2616 13.0101 44.4349 14.0765C44.7415 15.2495 44.8881 16.6358 44.8881 18.2487V25.3536C44.8881 26.7133 44.8214 27.833 44.7015 28.7261C44.5815 29.6192 44.3149 30.6856 43.8884 31.912H51.0865C50.6333 30.7656 50.3534 29.7525 50.2201 28.8727C50.0735 28.033 49.9935 26.9932 49.9935 25.7535V19.0485C49.9935 16.6092 50.1801 14.9429 50.5533 14.0631C50.9266 13.1834 51.4864 12.7568 52.2063 12.7568C52.8061 12.7568 53.446 13.0101 54.1125 13.5299C54.7789 14.0498 55.4854 14.8629 56.2452 15.9693L57.1917 8.95775C56.6452 8.81112 56.0186 8.73114 55.2855 8.73114C54.1658 8.73114 53.246 8.91776 52.5262 9.27767H52.5395Z" fill="#E58B76"/>
<path d="M62.6836 6.83828C63.71 6.83828 64.5498 6.51836 65.2163 5.86519C65.8828 5.21202 66.2161 4.41222 66.2161 3.43914C66.2161 2.46605 65.8828 1.62626 65.2163 0.973089C64.5498 0.31992 63.71 0 62.6836 0C61.6572 0 60.8574 0.31992 60.1909 0.973089C59.5244 1.62626 59.1912 2.43939 59.1912 3.43914C59.1912 4.43888 59.5244 5.21202 60.1909 5.86519C60.8574 6.51836 61.6839 6.83828 62.6836 6.83828Z" fill="#E58B76"/>
<path d="M65.3629 25.3536V8.78446C63.1235 9.78421 61.0973 10.544 59.2578 11.0905C59.6844 12.0236 59.951 13.0234 60.0709 14.0765C60.2176 15.0096 60.2975 16.2093 60.2975 17.6489V25.3403C60.2975 26.7 60.2309 27.8197 60.1109 28.7128C59.991 29.6059 59.6977 30.6723 59.2445 31.8987H66.4027C66.0161 30.8456 65.7095 29.7259 65.4962 28.5528C65.4029 27.8597 65.3629 26.7799 65.3629 25.3403V25.3536Z" fill="#E58B76"/>
<path d="M98.3147 24.4872V15.1562C98.3147 13.0501 97.8748 11.4638 97.0083 10.3974C96.1286 9.34432 94.9155 8.81112 93.3426 8.81112C91.863 8.81112 90.5033 9.27767 89.2503 10.1974C88.2639 10.9173 87.4374 11.957 86.7576 13.29C86.571 12.0903 86.1844 11.1172 85.5979 10.4107C84.7181 9.35765 83.5051 8.82445 81.9321 8.82445C80.4525 8.82445 79.0928 9.27767 77.8531 10.1841C76.9334 10.8639 76.1469 11.8237 75.4937 13.0634C75.4937 12.4369 75.4138 11.7037 75.2805 10.8639C75.0672 9.9575 74.8406 9.23768 74.6006 8.69115C74.0008 9.0244 72.7478 9.62425 70.8416 10.504L69.3886 11.1439C69.7752 11.9037 70.0551 12.7835 70.2017 13.8099C70.3484 14.743 70.4283 15.9693 70.4283 17.4756V25.167C70.4283 26.5933 70.3617 27.7797 70.2417 28.7661C70.1218 29.7525 69.8285 30.7923 69.3753 31.912H76.5735C76.0936 30.7389 75.7737 29.5259 75.627 28.2862C75.5337 27.6197 75.4937 26.58 75.4937 25.167V14.3164C76.0403 13.6232 76.6135 13.1167 77.1866 12.8101C77.8665 12.4502 78.5196 12.2636 79.1595 12.2636C80.0926 12.2636 80.7724 12.5702 81.199 13.17C81.6255 13.7699 81.8388 14.7296 81.8388 16.0226V31.912H88.1306C87.6507 30.619 87.3308 29.326 87.1841 28.0596C86.9975 26.8199 86.9175 25.6336 86.9175 24.4872V15.1562C86.9175 14.8629 86.8909 14.5963 86.8775 14.3164C87.4507 13.5966 88.0239 13.0767 88.5971 12.7835C89.2636 12.4369 89.9301 12.2636 90.5833 12.2636C91.5164 12.2636 92.1962 12.5702 92.6228 13.17C93.0493 13.7699 93.2626 14.7296 93.2626 16.0226V24.5805C93.2626 26.7 93.3426 28.4728 93.4892 29.9258C93.5825 30.6456 93.7025 31.3121 93.8491 31.912H99.5544C99.0745 30.619 98.7412 29.2726 98.5546 27.8863C98.408 26.9532 98.328 25.8202 98.328 24.4872H98.3147Z" fill="#E58B76"/>
<path d="M118.683 24.8604V17.5289C118.656 16.7691 118.616 16.036 118.59 15.3162C118.35 13.2367 117.643 11.6237 116.457 10.4774C115.284 9.33099 113.484 8.7578 111.071 8.7578C109.259 8.7578 107.739 9.09105 106.499 9.77088C105.26 10.4507 104.34 11.3438 103.74 12.4369C103.14 13.5433 102.834 14.743 102.834 16.036V17.3023L108.445 17.6222C107.806 16.1426 107.499 14.7563 107.499 13.45C107.499 12.4902 107.726 11.7437 108.179 11.2372C108.632 10.7173 109.285 10.464 110.125 10.464C111.445 10.464 112.351 11.0372 112.844 12.1836C113.324 13.33 113.564 14.8096 113.564 16.6225V17.9822C113.564 18.2487 113.404 18.5287 113.084 18.8219C112.764 19.1152 112.258 19.4218 111.565 19.7684C110.872 20.1149 109.952 20.5148 108.805 20.9681C108.685 21.0347 108.592 21.0614 108.539 21.0614C107.179 21.6079 106.059 22.1144 105.193 22.581C104.313 23.0475 103.553 23.6874 102.887 24.5005C102.22 25.3136 101.887 26.3001 101.887 27.4464C101.887 28.8994 102.367 30.0591 103.313 30.9522C104.26 31.8453 105.526 32.2852 107.099 32.2852C108.512 32.2852 109.818 31.9253 111.018 31.2188C112.045 30.6056 112.898 29.7792 113.591 28.7661C113.591 29.006 113.617 29.2593 113.657 29.5259C113.724 29.8592 113.791 30.1924 113.884 30.5257C113.977 30.8323 114.151 31.2988 114.431 31.9253H119.909C119.456 30.8989 119.136 29.8858 118.963 28.8861C118.776 27.953 118.696 26.6067 118.696 24.8604H118.683ZM110.312 28.7928C109.259 28.7928 108.445 28.4862 107.886 27.8597C107.326 27.2465 107.046 26.42 107.046 25.3936C107.046 24.1273 107.419 23.2075 108.152 22.661C108.885 22.1011 110.192 21.8212 112.071 21.8212C112.524 21.8212 112.844 21.8478 113.044 21.9145C113.244 21.9811 113.378 22.0745 113.458 22.2078C113.538 22.3411 113.564 22.581 113.564 22.9142V27.713C112.551 28.4195 111.471 28.8061 110.298 28.8061L110.312 28.7928Z" fill="#E58B76"/>
<path d="M149.702 6.10513C149.888 4.93209 150.195 3.71907 150.648 2.47938H143.183C143.61 3.62576 143.917 4.87877 144.13 6.23843C144.223 6.93159 144.263 7.98466 144.263 9.41097V15.7427H135.612V9.90418C135.612 8.42455 135.679 7.11821 135.812 5.9585C135.945 4.81212 136.238 3.65242 136.692 2.47938H129.227C129.68 3.69241 130.027 4.99874 130.267 6.42505C130.387 7.47812 130.453 8.63783 130.453 9.90418V24.4339C130.453 25.7669 130.36 27.0332 130.187 28.2329C130 29.4459 129.693 30.659 129.24 31.8987H136.758C136.332 30.8056 136.025 29.5659 135.812 28.1396C135.692 27.1798 135.625 26.0735 135.625 24.8338V17.2223H144.276V24.4205C144.276 25.9002 144.21 27.2198 144.077 28.3795C143.943 29.5392 143.663 30.7123 143.237 31.8853H150.662C150.208 30.7923 149.875 29.5259 149.662 28.0863C149.515 27.0599 149.435 25.8335 149.435 24.4205V9.91751C149.435 8.55785 149.528 7.2915 149.702 6.11846V6.10513Z" fill="#E58B76"/>
<path d="M168.057 10.2108C166.684 9.19769 165.098 8.69115 163.285 8.69115C161.472 8.69115 159.753 9.18436 158.3 10.1574C156.847 11.1439 155.727 12.5302 154.927 14.3297C154.127 16.1293 153.727 18.2088 153.727 20.5948C153.727 22.9809 154.114 24.9404 154.887 26.7266C155.66 28.5262 156.727 29.9258 158.1 30.9389C159.473 31.952 161.059 32.4585 162.872 32.4585C164.778 32.4585 166.444 31.9653 167.871 30.9922C169.31 30.0191 170.417 28.6195 171.216 26.8333C172.016 25.0337 172.416 22.9542 172.416 20.5682C172.416 18.1821 172.029 16.2359 171.256 14.4364C170.483 12.6368 169.417 11.2372 168.044 10.2241L168.057 10.2108ZM166.511 26.7799C166.258 28.033 165.871 28.9794 165.351 29.6326C164.831 30.2857 164.205 30.6056 163.445 30.6056C162.059 30.6056 161.006 29.4859 160.299 27.2332C159.593 24.9804 159.233 22.2344 159.233 18.9686C159.233 17.1557 159.353 15.6227 159.593 14.3697C159.833 13.1167 160.206 12.1703 160.699 11.5171C161.192 10.8639 161.832 10.544 162.619 10.544C164.005 10.544 165.058 11.6771 165.791 13.9432C166.511 16.2093 166.884 18.9552 166.884 22.1811C166.884 23.994 166.751 25.5269 166.498 26.7799H166.511Z" fill="#E58B76"/>
<path d="M190.438 0.413231L184.24 2.35941L178.041 0.413231C179.948 2.51937 182.014 4.90544 184.24 7.57143C185.813 5.70524 187.879 3.31917 190.438 0.413231Z" fill="#E58B76"/>
<path d="M188.465 27.8597C187.932 27.993 187.359 28.0596 186.719 28.0596C185.333 28.0596 184.146 27.6864 183.16 26.9532C182.174 26.2201 181.427 25.0604 180.921 23.4874C180.401 21.9145 180.147 19.915 180.147 17.4623C180.147 15.8627 180.294 14.583 180.574 13.6366C180.854 12.6901 181.24 12.0103 181.734 11.6237C182.214 11.2372 182.787 11.0372 183.453 11.0372C184.386 11.0372 185.346 11.4904 186.333 12.3969C187.306 13.3033 188.332 14.6497 189.385 16.4225L190.651 9.67757C189.958 9.37098 189.265 9.14437 188.572 8.99774C187.879 8.85111 187.079 8.77113 186.173 8.77113C183.853 8.77113 181.854 9.31766 180.201 10.424C178.548 11.5304 177.281 13.0101 176.442 14.8629C175.602 16.7158 175.175 18.7819 175.175 21.048C175.175 23.3141 175.562 25.2603 176.348 27.0065C177.135 28.7394 178.215 30.0858 179.588 31.0322C180.961 31.9786 182.507 32.4585 184.226 32.4585C186.039 32.4585 187.519 31.9386 188.679 30.9256C189.838 29.8992 190.585 28.4728 190.918 26.62C190.611 26.8333 190.305 27.0465 189.972 27.2598C189.492 27.5264 188.985 27.7397 188.452 27.873L188.465 27.8597Z" fill="#E58B76"/>
<path d="M207.527 10.4374C206.274 9.30433 204.581 8.74447 202.435 8.74447C200.289 8.74447 198.636 9.291 197.21 10.3707C195.77 11.4638 194.704 12.9168 193.997 14.743C193.291 16.5692 192.931 18.582 192.931 20.7814C192.931 23.1009 193.331 25.1537 194.131 26.9132C194.93 28.6728 196.05 30.0458 197.476 31.0055C198.916 31.9653 200.542 32.4585 202.395 32.4585C203.875 32.4585 205.154 32.1786 206.248 31.6054C207.341 31.0322 208.18 30.2724 208.807 29.3393C209.42 28.4062 209.807 27.4198 209.967 26.3934C209.153 26.9399 208.394 27.3265 207.687 27.5664C206.981 27.8063 206.128 27.9263 205.128 27.9263C203.342 27.9263 201.929 27.5397 200.876 26.7666C199.822 25.9935 199.076 24.9137 198.636 23.5274C198.356 22.6476 198.183 21.6212 198.076 20.4882H210.153V17.1824C210.153 16.4892 210.073 15.7294 209.927 14.9163C209.593 13.0501 208.807 11.5438 207.554 10.4107L207.527 10.4374ZM204.795 18.5553C204.701 18.8219 204.555 18.9952 204.341 19.0752C204.128 19.1552 203.768 19.1952 203.248 19.1952H197.97C197.97 18.9419 197.943 18.6886 197.943 18.422C197.943 16.7025 198.09 15.2495 198.396 14.0765C198.703 12.9034 199.129 12.0103 199.689 11.4105C200.249 10.8106 200.902 10.504 201.662 10.504C202.542 10.504 203.248 10.8906 203.795 11.6771C204.341 12.4635 204.688 13.6499 204.835 15.2495C204.888 16.036 204.928 16.7025 204.928 17.249C204.928 17.8488 204.888 18.2887 204.795 18.5553Z" fill="#E58B76"/>
<path d="M226.696 12.3569C226.696 12.9567 226.656 13.5699 226.562 14.1964C226.469 14.8096 226.336 15.4095 226.149 15.9827L222.897 26.3267L219.724 15.9827C219.338 14.7163 219.138 13.3167 219.138 11.7704C219.138 11.2238 219.164 10.7306 219.231 10.2774C219.298 9.8242 219.378 9.46429 219.498 9.18436H210.993C211.593 9.94417 212.099 10.7706 212.513 11.6904C212.913 12.6102 213.446 13.9432 214.072 15.7027C214.139 15.8494 214.192 16.0226 214.259 16.1959L219.831 31.912H222.59L228.109 16.1959L228.242 15.796C228.935 13.9565 229.495 12.5702 229.922 11.6504C230.348 10.7306 230.881 9.90418 231.548 9.18436H226.203C226.536 9.94417 226.696 10.9972 226.696 12.3569Z" fill="#E58B76"/>
<path d="M248.744 24.8604V17.5289C248.717 16.7691 248.677 16.036 248.65 15.3162C248.41 13.2367 247.704 11.6237 246.517 10.4774C245.344 9.33099 243.545 8.7578 241.132 8.7578C239.319 8.7578 237.8 9.09105 236.56 9.77088C235.32 10.4507 234.4 11.3438 233.801 12.4369C233.201 13.5433 232.894 14.743 232.894 16.036V17.3023L238.506 17.6222C237.866 16.1426 237.56 14.7563 237.56 13.45C237.56 12.4902 237.786 11.7437 238.24 11.2372C238.693 10.7173 239.346 10.464 240.186 10.464C241.519 10.464 242.412 11.0372 242.905 12.1836C243.385 13.33 243.625 14.8096 243.625 16.6225V17.9822C243.625 18.2487 243.465 18.5287 243.145 18.8219C242.825 19.1152 242.318 19.4218 241.625 19.7684C240.932 20.1149 240.012 20.5148 238.866 20.9681C238.746 21.0347 238.653 21.0614 238.599 21.0614C237.24 21.6079 236.12 22.1144 235.254 22.581C234.374 23.0475 233.614 23.6874 232.948 24.5005C232.281 25.3136 231.948 26.3001 231.948 27.4464C231.948 28.8994 232.428 30.0591 233.374 30.9522C234.321 31.8453 235.587 32.2852 237.16 32.2852C238.573 32.2852 239.879 31.9253 241.079 31.2188C242.105 30.6056 242.958 29.7792 243.651 28.7661C243.651 29.006 243.678 29.2593 243.718 29.5259C243.785 29.8592 243.851 30.1924 243.945 30.5257C244.038 30.8323 244.211 31.2988 244.491 31.9253H249.97C249.517 30.8989 249.197 29.8858 249.023 28.8861C248.837 27.953 248.757 26.6067 248.757 24.8604H248.744ZM240.372 28.7928C239.319 28.7928 238.506 28.4862 237.946 27.8597C237.386 27.2465 237.106 26.42 237.106 25.3936C237.106 24.1273 237.48 23.2075 238.213 22.661C238.946 22.1011 240.252 21.8212 242.132 21.8212C242.585 21.8212 242.905 21.8478 243.105 21.9145C243.305 21.9811 243.438 22.0745 243.518 22.2078C243.598 22.3411 243.625 22.581 243.625 22.9142V27.713C242.612 28.4195 241.532 28.8061 240.359 28.8061L240.372 28.7928Z" fill="#E58B76"/>
<path d="M263.913 8.74447C262.793 8.74447 261.874 8.93109 261.154 9.291C260.434 9.65091 259.847 10.2641 259.394 11.1305C259.088 11.7037 258.821 12.4502 258.581 13.3433C258.501 12.7701 258.381 12.1436 258.208 11.4238C257.941 10.2774 257.621 9.37098 257.261 8.70448C255.995 9.37098 254.249 10.1841 252.009 11.1439C252.529 12.0503 252.876 13.0234 253.049 14.0898C253.356 15.2628 253.502 16.6492 253.502 18.2621V25.367C253.502 26.7266 253.436 27.8463 253.316 28.7394C253.196 29.6326 252.929 30.699 252.503 31.9253H259.701C259.248 30.7789 258.968 29.7659 258.834 28.8861C258.688 28.0463 258.608 27.0066 258.608 25.7669V19.0619C258.608 16.6225 258.794 14.9562 259.168 14.0765C259.541 13.1967 260.101 12.7701 260.821 12.7701C261.42 12.7701 262.06 13.0234 262.727 13.5433C263.393 14.0631 264.1 14.8763 264.86 15.9827L265.806 8.97108C265.259 8.82445 264.633 8.74447 263.9 8.74447H263.913Z" fill="#E58B76"/>
<path d="M34.0508 49.6275C34.0508 51.1338 32.8911 52.5335 30.9316 52.5335H26.5461V41.9895H30.5317C32.3046 41.9895 33.451 42.9492 33.451 44.5888C33.451 45.5352 33.0244 46.5217 31.998 46.9216C33.3977 47.2681 34.0375 48.5345 34.0375 49.6275H34.0508ZM30.5184 42.9359H27.5991V46.5217H30.7317C31.8114 46.5217 32.4112 45.7085 32.4112 44.6688C32.4112 43.629 31.6914 42.9359 30.5317 42.9359H30.5184ZM30.7583 51.587C32.1846 51.587 32.9978 50.6406 32.9978 49.5476C32.9978 48.4545 32.158 47.4014 30.7183 47.4014H27.6125V51.587H30.7717H30.7583Z" fill="#E58B76"/>
<path d="M35.6904 48.9477C35.6904 46.6816 37.4633 45.202 39.5828 45.202C41.7022 45.202 43.4884 46.6816 43.4884 48.9477C43.4884 51.2138 41.7022 52.7201 39.5828 52.7201C37.4633 52.7201 35.6904 51.2138 35.6904 48.9477ZM42.4754 48.9477C42.4754 47.2681 41.1557 46.1351 39.5828 46.1351C38.0098 46.1351 36.7035 47.2681 36.7035 48.9477C36.7035 50.6273 37.9965 51.7737 39.5828 51.7737C41.169 51.7737 42.4754 50.6273 42.4754 48.9477Z" fill="#E58B76"/>
<path d="M51.7664 41.4962H52.7928V52.5335H51.7664V51.1338C51.2065 52.1202 50.0468 52.7068 48.7938 52.7068C46.7143 52.7068 45.0081 51.1205 45.0081 48.9344C45.0081 46.7483 46.701 45.1886 48.7938 45.1886C50.0601 45.1886 51.2065 45.7752 51.7664 46.7483V41.4829V41.4962ZM51.7664 48.9877C51.7664 47.2548 50.3667 46.1351 48.8737 46.1351C47.3141 46.1351 46.0345 47.3614 46.0345 48.9344C46.0345 50.5073 47.3141 51.787 48.8737 51.787C50.4334 51.787 51.7664 50.6406 51.7664 48.9877Z" fill="#E58B76"/>
<path d="M60.6175 45.3886H61.7105L57.0317 56.0126H55.952L57.4849 52.4668L54.4057 45.3886H55.5121L58.0448 51.2405L60.6175 45.3886Z" fill="#E58B76"/>
<path d="M67.0159 47.2815C67.0159 44.2822 69.4419 41.8028 72.5745 41.8028C75.707 41.8028 78.1331 44.2822 78.1331 47.2815C78.1331 50.2807 75.707 52.7201 72.5745 52.7201C69.4419 52.7201 67.0159 50.2674 67.0159 47.2815ZM77.0667 47.2815C77.0667 44.8287 75.1072 42.7493 72.5611 42.7493C70.0151 42.7493 68.0556 44.8287 68.0556 47.2815C68.0556 49.7342 70.0151 51.7603 72.5611 51.7603C75.1072 51.7603 77.0667 49.7208 77.0667 47.2815Z" fill="#E58B76"/>
<path d="M84.7447 45.4153L84.5581 46.3484C84.1716 46.2017 83.825 46.1484 83.5584 46.1484C81.7855 46.1484 81.239 48.0813 81.239 49.8408V52.5335H80.1992V45.3886H81.239V47.1348C81.5989 45.9218 82.3987 45.202 83.5717 45.202C83.9849 45.202 84.4648 45.282 84.7581 45.4153H84.7447Z" fill="#E58B76"/>
<path d="M85.8911 42.7493C85.8911 42.336 86.2644 42.0428 86.6776 42.0428C87.1308 42.0428 87.4774 42.336 87.4774 42.7493C87.4774 43.1625 87.1308 43.4424 86.6776 43.4424C86.2644 43.4424 85.8911 43.1492 85.8911 42.7493ZM86.1577 52.5335V45.3886H87.1841V52.5335H86.1577Z" fill="#E58B76"/>
<path d="M96.6751 49.3609H90.2634C90.4367 50.8939 91.5564 51.7737 93.0627 51.7737C94.0891 51.7737 94.9955 51.2938 95.4887 50.5206L96.3685 50.8939C95.7153 52.0403 94.4357 52.7201 93.036 52.7201C90.9299 52.7201 89.2503 51.2005 89.2503 48.9344C89.2503 46.6683 90.9299 45.202 93.036 45.202C95.1422 45.202 96.7284 46.6683 96.7284 48.9344C96.7284 49.0677 96.7151 49.2276 96.7018 49.3609H96.6751ZM95.6887 48.5211C95.5421 47.0415 94.4757 46.1351 93.0227 46.1351C91.5697 46.1351 90.49 46.9882 90.2767 48.5211H95.6887Z" fill="#E58B76"/>
<path d="M105.34 48.3745V52.5335H104.313V48.4145C104.313 47.0415 103.407 46.1617 102.207 46.1617C101.007 46.1617 99.7543 46.8416 99.7143 48.5611V52.5201H98.6879V45.3753H99.7143V46.6549C100.154 45.6285 101.381 45.1887 102.3 45.1887C104.1 45.1887 105.326 46.3883 105.326 48.3612L105.34 48.3745Z" fill="#E58B76"/>
<path d="M110.898 45.3886V46.2284H109.192V52.5335H108.192V46.2284H106.833V45.3886H108.192V42.7093H109.192V45.3886H110.898Z" fill="#E58B76"/>
<path d="M119.243 49.3609H112.831C113.004 50.8939 114.124 51.7737 115.63 51.7737C116.657 51.7737 117.563 51.2938 118.056 50.5206L118.936 50.8939C118.283 52.0403 117.003 52.7201 115.604 52.7201C113.498 52.7201 111.818 51.2005 111.818 48.9344C111.818 46.6683 113.498 45.202 115.604 45.202C117.71 45.202 119.296 46.6683 119.296 48.9344C119.296 49.0677 119.283 49.2276 119.269 49.3609H119.243ZM118.256 48.5211C118.11 47.0415 117.043 46.1351 115.59 46.1351C114.137 46.1351 113.058 46.9882 112.844 48.5211H118.256Z" fill="#E58B76"/>
<path d="M127.507 41.4962H128.534V52.5335H127.507V51.1338C126.947 52.1202 125.788 52.7068 124.535 52.7068C122.455 52.7068 120.749 51.1205 120.749 48.9344C120.749 46.7483 122.442 45.1886 124.535 45.1886C125.801 45.1886 126.947 45.7752 127.507 46.7483V41.4829V41.4962ZM127.507 48.9877C127.507 47.2548 126.108 46.1351 124.615 46.1351C123.055 46.1351 121.775 47.3614 121.775 48.9344C121.775 50.5073 123.055 51.787 124.615 51.787C126.174 51.787 127.507 50.6406 127.507 48.9877Z" fill="#E58B76"/>
<path d="M139.931 41.9895C142.184 41.9895 143.077 43.5757 143.077 45.202C143.077 46.8282 142.184 48.4145 139.891 48.4145H136.665V52.5335H135.612V41.9895H139.931ZM139.838 47.4681C141.424 47.4681 142.024 46.3484 142.024 45.202C142.024 44.0556 141.437 42.9359 139.918 42.9359H136.665V47.4681H139.838Z" fill="#E58B76"/>
<path d="M144.196 50.6406H145.143C145.25 51.2405 145.836 51.8536 146.916 51.8536C147.996 51.8536 148.635 51.3204 148.635 50.6006C148.635 50.0141 148.222 49.6409 147.449 49.4542L146.383 49.2143C145.33 48.9744 144.49 48.4545 144.49 47.2548C144.49 46.0551 145.529 45.2153 146.942 45.2153C148.182 45.2153 149.342 45.8685 149.382 47.1615H148.395C148.342 46.5217 147.689 46.0951 146.956 46.0951C146.089 46.0951 145.503 46.6016 145.503 47.2681C145.503 47.9346 146.103 48.2279 146.649 48.3612L147.756 48.6145C149.209 48.9477 149.648 49.8008 149.648 50.6273C149.648 51.8936 148.449 52.7334 146.902 52.7334C145.609 52.7334 144.316 52.0136 144.183 50.6539L144.196 50.6406Z" fill="#E58B76"/>
<path d="M156.687 45.3886H157.78L153.101 56.0126H152.021L153.554 52.4668L150.475 45.3886H151.581L154.114 51.2405L156.687 45.3886Z" fill="#E58B76"/>
<path d="M165.991 48.3745V52.5335H164.965V48.4145C164.965 47.0415 164.058 46.1617 162.858 46.1617C161.659 46.1617 160.406 46.8416 160.366 48.5611V52.5201H159.339V41.4829H160.366V46.6549C160.806 45.6285 162.032 45.1886 162.952 45.1886C164.751 45.1886 165.978 46.3883 165.978 48.3612L165.991 48.3745Z" fill="#E58B76"/>
<path d="M167.924 48.9477C167.924 46.6816 169.697 45.202 171.816 45.202C173.936 45.202 175.722 46.6816 175.722 48.9477C175.722 51.2138 173.936 52.7201 171.816 52.7201C169.697 52.7201 167.924 51.2138 167.924 48.9477ZM174.709 48.9477C174.709 47.2681 173.389 46.1351 171.816 46.1351C170.243 46.1351 168.937 47.2681 168.937 48.9477C168.937 50.6273 170.23 51.7737 171.816 51.7737C173.402 51.7737 174.709 50.6273 174.709 48.9477Z" fill="#E58B76"/>
<path d="M180.841 45.3886V46.2284H179.134V52.5335H178.135V46.2284H176.775V45.3886H178.135V42.7093H179.134V45.3886H180.841Z" fill="#E58B76"/>
<path d="M189.052 48.3745V52.5335H188.025V48.4145C188.025 47.0415 187.119 46.1617 185.919 46.1617C184.72 46.1617 183.467 46.8416 183.427 48.5611V52.5201H182.4V41.4829H183.427V46.6549C183.867 45.6285 185.093 45.1886 186.013 45.1886C187.812 45.1886 189.039 46.3883 189.039 48.3612L189.052 48.3745Z" fill="#E58B76"/>
<path d="M198.436 49.3609H192.024C192.198 50.8939 193.317 51.7737 194.81 51.7737C195.837 51.7737 196.743 51.2938 197.236 50.5206L198.116 50.8939C197.463 52.0403 196.183 52.7201 194.784 52.7201C192.678 52.7201 190.998 51.2005 190.998 48.9344C190.998 46.6683 192.678 45.202 194.784 45.202C196.89 45.202 198.476 46.6683 198.476 48.9344C198.476 49.0677 198.463 49.2276 198.45 49.3609H198.436ZM197.45 48.5211C197.303 47.0415 196.237 46.1351 194.784 46.1351C193.331 46.1351 192.251 46.9882 192.038 48.5211H197.45Z" fill="#E58B76"/>
<path d="M205.008 45.4153L204.821 46.3484C204.435 46.2017 204.088 46.1484 203.822 46.1484C202.049 46.1484 201.502 48.0813 201.502 49.8408V52.5335H200.462V45.3886H201.502V47.1348C201.862 45.9218 202.662 45.202 203.835 45.202C204.248 45.202 204.728 45.282 205.021 45.4153H205.008Z" fill="#E58B76"/>
<path d="M212.273 45.3886H213.299V52.5335H212.273V51.0538C211.726 52.0403 210.58 52.7201 209.26 52.7201C207.234 52.7201 205.528 51.0805 205.528 48.9477C205.528 46.8149 207.167 45.202 209.3 45.202C210.58 45.202 211.726 45.8018 212.286 46.7749V45.3886H212.273ZM212.273 48.9877C212.273 47.3214 210.873 46.1351 209.367 46.1351C207.861 46.1351 206.528 47.4148 206.528 48.9477C206.528 50.4807 207.807 51.7737 209.38 51.7737C210.953 51.7737 212.273 50.574 212.273 48.9744V48.9877Z" fill="#E58B76"/>
<path d="M223.617 48.961C223.617 51.1338 221.924 52.7068 219.831 52.7068C218.564 52.7068 217.418 52.1069 216.858 51.1338V55.9993H215.832V45.3753H216.858V46.7882C217.405 45.8018 218.578 45.202 219.831 45.202C221.924 45.202 223.617 46.7883 223.617 48.9744V48.961ZM222.603 48.9877C222.603 47.4014 221.324 46.1351 219.751 46.1351C218.178 46.1351 216.858 47.2815 216.858 48.9344C216.858 50.5873 218.258 51.787 219.751 51.787C221.337 51.787 222.603 50.5606 222.603 48.9877Z" fill="#E58B76"/>
<path d="M225.389 42.7493C225.389 42.336 225.763 42.0428 226.176 42.0428C226.629 42.0428 226.976 42.336 226.976 42.7493C226.976 43.1625 226.629 43.4424 226.176 43.4424C225.763 43.4424 225.389 43.1492 225.389 42.7493ZM225.656 52.5335V45.3886H226.682V52.5335H225.656Z" fill="#E58B76"/>
<path d="M228.629 50.6406H229.575C229.682 51.2405 230.268 51.8536 231.348 51.8536C232.428 51.8536 233.068 51.3204 233.068 50.6006C233.068 50.0141 232.654 49.6409 231.881 49.4542L230.815 49.2143C229.762 48.9744 228.922 48.4545 228.922 47.2548C228.922 46.0551 229.962 45.2153 231.375 45.2153C232.614 45.2153 233.774 45.8685 233.814 47.1615H232.828C232.774 46.5217 232.121 46.0951 231.388 46.0951C230.521 46.0951 229.935 46.6016 229.935 47.2681C229.935 47.9346 230.535 48.2279 231.081 48.3612L232.188 48.6145C233.641 48.9477 234.081 49.8008 234.081 50.6273C234.081 51.8936 232.881 52.7334 231.335 52.7334C230.042 52.7334 228.749 52.0136 228.615 50.6539L228.629 50.6406Z" fill="#E58B76"/>
<path d="M239.306 45.3886V46.2284H237.6V52.5335H236.6V46.2284H235.24V45.3886H236.6V42.7093H237.6V45.3886H239.306Z" fill="#E58B76"/>
</g>
<defs>
<clipPath id="clip0_336_1240">
<rect width="265.852" height="56.0126" fill="white"/>
</clipPath>
</defs>
</svg>
