<svg xmlns="http://www.w3.org/2000/svg" width="48" height="48" viewBox="0 0 48 48" fill="none"><circle cx="24" cy="24" r="24" fill="#C58FAC"/><path d="M24 21C22.3431 21 21 22.3431 21 24C21 25.6569 22.3431 27 24 27C25.6569 27 27 25.6569 27 24C27 22.3431 25.6569 21 24 21ZM24 19C26.7614 19 29 21.2386 29 24C29 26.7614 26.7614 29 24 29C21.2386 29 19 26.7614 19 24C19 21.2386 21.2386 19 24 19ZM30.5 18.75C30.5 19.4404 29.9404 20 29.25 20C28.5596 20 28 19.4404 28 18.75C28 18.0596 28.5596 17.5 29.25 17.5C29.9404 17.5 30.5 18.0596 30.5 18.75ZM24 16C21.526 16 21.122 16.007 19.971 16.058C19.187 16.095 18.661 16.2 18.173 16.39C17.739 16.558 17.426 16.759 17.093 17.093C16.78 17.3954 16.5394 17.7646 16.389 18.173C16.199 18.663 16.094 19.188 16.058 19.971C16.006 21.075 16 21.461 16 24C16 26.474 16.007 26.878 16.058 28.029C16.095 28.812 16.2 29.339 16.389 29.826C16.559 30.261 16.759 30.574 17.091 30.906C17.428 31.242 17.741 31.443 18.171 31.609C18.665 31.8 19.191 31.906 19.971 31.942C21.075 31.994 21.461 32 24 32C26.474 32 26.878 31.993 28.029 31.942C28.811 31.905 29.338 31.8 29.826 31.611C30.259 31.442 30.574 31.241 30.906 30.909C31.243 30.572 31.444 30.259 31.61 29.829C31.8 29.336 31.906 28.809 31.942 28.029C31.994 26.925 32 26.539 32 24C32 21.526 31.993 21.122 31.942 19.971C31.905 19.189 31.8 18.661 31.61 18.173C31.4593 17.765 31.2191 17.396 30.907 17.093C30.6047 16.7798 30.2355 16.5392 29.827 16.389C29.337 16.199 28.811 16.094 28.029 16.058C26.925 16.006 26.539 16 24 16ZM24 14C26.717 14 27.056 14.01 28.122 14.06C29.187 14.11 29.912 14.277 30.55 14.525C31.21 14.779 31.766 15.123 32.322 15.678C32.8305 16.1779 33.224 16.7826 33.475 17.45C33.722 18.087 33.89 18.813 33.94 19.878C33.987 20.944 34 21.283 34 24C34 26.717 33.99 27.056 33.94 28.122C33.89 29.187 33.722 29.912 33.475 30.55C33.2247 31.2178 32.8311 31.8226 32.322 32.322C31.822 32.8303 31.2173 33.2238 30.55 33.475C29.913 33.722 29.187 33.89 28.122 33.94C27.056 33.987 26.717 34 24 34C21.283 34 20.944 33.99 19.878 33.94C18.813 33.89 18.088 33.722 17.45 33.475C16.7823 33.2245 16.1775 32.8309 15.678 32.322C15.1694 31.8222 14.7759 31.2175 14.525 30.55C14.277 29.913 14.11 29.187 14.06 28.122C14.013 27.056 14 26.717 14 24C14 21.283 14.01 20.944 14.06 19.878C14.11 18.812 14.277 18.088 14.525 17.45C14.7752 16.7822 15.1688 16.1773 15.678 15.678C16.1777 15.1692 16.7824 14.7757 17.45 14.525C18.088 14.277 18.812 14.11 19.878 14.06C20.944 14.013 21.283 14 24 14Z" fill="white"/></svg>
