<svg xmlns="http://www.w3.org/2000/svg" width="83" height="79" viewBox="0 0 83 79" fill="none"><path opacity="0.1" d="M76.6198 79H6.04242C2.70538 79 0 76.2947 0 72.9575C0 69.6204 2.70538 66.9151 6.04242 66.9151H76.6198C79.957 66.9151 82.6624 69.6204 82.6624 72.9575C82.6624 76.2947 79.957 79 76.6198 79Z" fill="#241E1B"/><path d="M41.3337 59.8317L4.95898 23.457L41.3337 1.26274L77.7085 23.457L41.3337 59.8317Z" fill="#FFE4E1"/><path d="M41.3335 60.92C41.045 60.92 40.7684 60.8052 40.5645 60.6014L4.18977 24.2265C3.95387 23.9906 3.83923 23.6598 3.87877 23.3286C3.91831 22.9975 4.10756 22.7026 4.39229 22.5291L40.767 0.334631C41.1148 0.122669 41.5521 0.122669 41.9 0.334631L78.2747 22.5291C78.5592 22.7026 78.7487 22.9975 78.7883 23.3286C78.8277 23.6598 78.7129 23.9906 78.4771 24.2265L42.1024 60.6014C41.8985 60.8052 41.6219 60.92 41.3335 60.92ZM6.7053 23.6658L41.3335 58.2942L75.9614 23.6658L41.3335 2.53724L6.7053 23.6658Z" fill="#C58FAC"/><path opacity="0.1" d="M17.8555 16.9042V36.1137L36.4375 54.6957H48.1625L69.1702 33.688V18.3843L42.3001 1.98924L17.8555 16.9042Z" fill="#231F20" fill-opacity="0.5"/><path d="M66.6689 11.5438V53.3774H16.5352V11.5438C16.5352 5.76866 21.2166 1.0872 26.9916 1.0872H40.2794L66.6689 11.5438Z" fill="white"/><path d="M66.669 54.4655H16.5349C15.9343 54.4655 15.4473 53.9788 15.4473 53.3779V11.5442C15.4473 5.17863 20.6261 0 26.9915 0H40.2796C40.4166 0 40.5525 0.0258568 40.6801 0.076365L67.0694 10.533C67.4842 10.6973 67.7566 11.0983 67.7566 11.5442V53.3779C67.7566 53.9788 67.2696 54.4655 66.669 54.4655ZM17.6226 52.2902H65.5813V12.2831L40.072 2.17529H26.9915C21.8254 2.17529 17.6226 6.37817 17.6226 11.5442V52.2902Z" fill="#C58FAC"/><path d="M26.9922 1.0872H65.1314C70.9066 1.0872 75.5881 5.76866 75.5881 11.5438H37.4485C37.4485 5.76866 32.7671 1.0872 26.9922 1.0872Z" fill="white"/><path d="M75.5883 12.6319H37.4489C36.8479 12.6319 36.3612 12.1449 36.3612 11.5442C36.3612 6.37817 32.158 2.17529 26.992 2.17529C26.3913 2.17529 25.9043 1.68826 25.9043 1.08764C25.9043 0.486774 26.3913 0 26.992 0H65.1317C71.4972 0 76.676 5.17863 76.676 11.5442C76.676 12.1449 76.189 12.6319 75.5883 12.6319ZM38.4857 10.4566H74.4378C73.897 5.80124 69.9297 2.17529 65.1317 2.17529H33.7298C36.3624 4.07358 38.1659 7.05252 38.4857 10.4566Z" fill="#C58FAC"/><path d="M23.9199 21.3091C23.9199 19.6523 25.2631 18.3091 26.9199 18.3091H33.8369C35.4937 18.3091 36.8369 19.6523 36.8369 21.3091V29.4563C36.8369 31.1131 35.4937 32.4563 33.8369 32.4563H26.9199C25.2631 32.4563 23.9199 31.1131 23.9199 29.4563V21.3091Z" fill="#CFCCC6"/><path d="M54.3669 21.0544H41.4498C41.1237 21.0544 40.8594 20.79 40.8594 20.4639C40.8594 20.1379 41.1237 19.8735 41.4498 19.8735H54.3669C54.693 19.8735 54.9574 20.1379 54.9574 20.4639C54.9574 20.79 54.693 21.0544 54.3669 21.0544Z" fill="#C58FAC"/><path d="M60.5172 25.5148H41.7568C41.4307 25.5148 41.166 25.2503 41.166 24.9243C41.166 24.5982 41.4307 24.3338 41.7568 24.3338H60.5172C60.8435 24.3338 61.1076 24.5982 61.1076 24.9243C61.1076 25.2503 60.8435 25.5148 60.5172 25.5148Z" fill="#C58FAC"/><path d="M55.6056 37.3532H24.5357C24.2098 37.3532 23.9453 37.0887 23.9453 36.7627C23.9453 36.4366 24.2098 36.172 24.5357 36.172H55.6056C55.9317 36.172 56.1961 36.4366 56.1961 36.7627C56.1961 37.0887 55.9317 37.3532 55.6056 37.3532Z" fill="#C58FAC"/><path d="M49.4509 41.3506H24.5357C24.2098 41.3506 23.9453 41.086 23.9453 40.7599C23.9453 40.4339 24.2098 40.1695 24.5357 40.1695H49.4509C49.7771 40.1695 50.0413 40.4339 50.0413 40.7599C50.0413 41.086 49.7771 41.3506 49.4509 41.3506Z" fill="#C58FAC"/><path d="M59.9136 45.3481H24.5357C24.2098 45.3481 23.9453 45.0835 23.9453 44.7574C23.9453 44.4313 24.2098 44.1669 24.5357 44.1669H59.9136C60.24 44.1669 60.5041 44.4313 60.5041 44.7574C60.5041 45.0835 60.24 45.3481 59.9136 45.3481Z" fill="#C58FAC"/><path d="M54.3625 29.9706H41.7568C41.4307 29.9706 41.166 29.706 41.166 29.3799C41.166 29.0539 41.4307 28.7895 41.7568 28.7895H54.3625C54.6888 28.7895 54.9531 29.0539 54.9531 29.3799C54.9531 29.706 54.6888 29.9706 54.3625 29.9706Z" fill="#C58FAC"/><path opacity="0.1" d="M41.3337 56.4998L6.72038 21.8864L4.95898 22.9612L41.3337 59.3359L77.7085 22.9612L75.9471 21.8864L41.3337 56.4998Z" fill="#231F20" fill-opacity="0.5"/><path d="M41.3338 59.8289L5.19537 23.6904H4.95898V67.2447C4.95898 70.3239 7.45522 72.8199 10.5344 72.8199H72.1332C75.2125 72.8199 77.7085 70.3239 77.7085 67.2447V23.6904H77.4723L41.3338 59.8289Z" fill="#FFE4E1"/><path d="M72.1327 73.9082H10.534C6.85988 73.9082 3.87109 70.9191 3.87109 67.2453V23.691C3.87109 23.0904 4.35785 22.6033 4.95877 22.6033H5.19479C5.48314 22.6033 5.75991 22.7182 5.96387 22.9219L41.3333 58.2916L76.7031 22.9219C76.9068 22.7182 77.1835 22.6033 77.4719 22.6033H77.708C78.3086 22.6033 78.7957 23.0904 78.7957 23.691V67.2453C78.7957 70.9191 75.8068 73.9082 72.1327 73.9082ZM6.04632 26.0807V67.2453C6.04632 69.7198 8.05942 71.7329 10.534 71.7329H72.1327C74.6073 71.7329 76.6204 69.7198 76.6204 67.2453V26.0809L42.1022 60.5988C41.6781 61.0232 40.9889 61.0232 40.5643 60.5988L6.04632 26.0807Z" fill="#C58FAC"/><path opacity="0.1" d="M31.7495 51.3999L9.30859 71.8587L11.2298 71.9201L32.6199 52.4194M49.9748 52.5158L71.5701 72.2855L73.3117 72.0525L50.9602 51.5908" fill="#231F20" fill-opacity="0.5"/><path d="M70.9279 72.8232H11.7402L38.5233 48.4056C40.1497 46.923 42.6382 46.9254 44.2615 48.4116L70.9279 72.8232Z" fill="#FFE4E1"/><path d="M70.9274 73.911H11.74C11.291 73.911 10.888 73.635 10.7259 73.2164C10.5636 72.7975 10.6754 72.3221 11.0071 72.0195L37.7903 47.6021C39.8464 45.7278 42.9444 45.7314 44.9956 47.6094L71.6616 72.0212C71.9928 72.324 72.1037 72.7992 71.9413 73.2173C71.7789 73.6355 71.3762 73.911 70.9274 73.911ZM14.5473 71.7357H68.1285L43.5267 49.214C42.3112 48.1005 40.4746 48.0986 39.2559 49.2097L14.5473 71.7357Z" fill="#C58FAC"/><path opacity="0.1" d="M72.1332 70.9307H10.5344C7.45522 70.9307 4.95898 68.4347 4.95898 65.3555V67.2463C4.95898 70.3255 7.45522 72.8215 10.5344 72.8215H72.1332C75.2122 72.8215 77.7085 70.3255 77.7085 67.2463V65.3555C77.7085 68.4347 75.2122 70.9307 72.1332 70.9307Z" fill="#C58FAC"/></svg>
