<svg xmlns="http://www.w3.org/2000/svg" width="77" height="80" viewBox="0 0 77 80" fill="none"><path opacity="0.1" d="M61.0781 80.0003H15.901C13.7649 80.0003 12.0332 78.243 12.0332 76.0754C12.0332 73.9077 13.7649 72.1504 15.901 72.1504H61.0781C63.2141 72.1504 64.9459 73.9077 64.9459 76.0754C64.9459 78.243 63.2141 80.0003 61.0781 80.0003Z" fill="#241E1B"/><circle cx="38.4907" cy="38.3169" r="37.1899" fill="#FFE4E1"/><path d="M38.4906 76.6338C17.3628 76.6338 0.173828 59.4448 0.173828 38.3169C0.173828 17.189 17.3628 0 38.4906 0C59.6185 0 76.8076 17.189 76.8076 38.3169C76.8076 59.4448 59.6185 76.6338 38.4906 76.6338ZM38.4906 2.25391C18.6055 2.25391 2.42761 18.4317 2.42761 38.3169C2.42761 58.2021 18.6055 74.3799 38.4906 74.3799C58.3756 74.3799 74.5536 58.2021 74.5536 38.3169C74.5536 18.4317 58.3756 2.25391 38.4906 2.25391Z" fill="#EA6387"/><path d="M38.4975 63.6812C26.7607 63.6825 16.1945 55.4742 13.6778 43.5426C10.7911 29.8537 19.579 16.3681 33.2676 13.4812C39.0361 12.2648 45.087 13.1049 50.305 15.847C50.856 16.1365 51.068 16.8179 50.7784 17.3689C50.4889 17.9199 49.8074 18.1317 49.2566 17.8422C44.5016 15.3436 38.9878 14.578 33.7328 15.6867C21.2603 18.317 13.2529 30.6045 15.8832 43.0773C18.5138 55.5498 30.8007 63.5575 43.2737 60.9269C55.7465 58.2963 63.7541 46.0089 61.1235 33.5361C60.9949 32.927 61.3846 32.3293 61.9935 32.2008C62.6027 32.0721 63.2004 32.462 63.329 33.071C66.2157 46.7597 57.4278 60.2453 43.7391 63.1323C41.982 63.5029 40.2259 63.681 38.4975 63.6812Z" fill="#EA6387"/><path d="M60.0375 26.3157L54.2537 20.5303L32.6755 42.1085L27.2328 36.6642L21.5137 42.3818L32.6755 53.6778L60.0375 26.3157Z" fill="#CFCCC6"/><path d="M32.6755 54.8049H32.6722C32.372 54.8038 32.085 54.6835 31.874 54.47L20.7121 43.1741C20.2763 42.7331 20.2786 42.0231 20.7169 41.5848L26.4361 35.8674C26.6474 35.6559 26.934 35.5372 27.2331 35.5372C27.5318 35.5372 27.8187 35.6562 28.0299 35.8676L32.6757 40.5147L53.457 19.7334C53.668 19.5223 53.9548 19.4033 54.2536 19.4033C54.5529 19.4033 54.8394 19.5223 55.0507 19.7336L60.8347 25.519C61.2747 25.959 61.2747 26.6725 60.8344 27.1128L33.4725 54.4749C33.2609 54.6862 32.9744 54.8049 32.6755 54.8049ZM23.103 42.3867L32.6804 52.0793L58.4439 26.3157L54.2536 22.1243L33.4725 42.9056C33.2609 43.1168 32.9744 43.2357 32.6755 43.2357C32.3765 43.2357 32.0898 43.1168 31.8786 42.9054L27.2329 38.2583L23.103 42.3867Z" fill="#EA6387"/></svg>