<svg xmlns="http://www.w3.org/2000/svg" width="69" height="65" viewBox="0 0 69 65" fill="none">
  <path opacity="0.1" d="M63.0416 64.9999H4.9716C2.22594 64.9999 0 62.774 0 60.0283C0 57.2825 2.22594 55.0566 4.9716 55.0566H63.0416C65.7873 55.0566 68.0133 57.2825 68.0133 60.0283C68.0133 62.774 65.7873 64.9999 63.0416 64.9999Z" fill="#241E1B"/>
  <path d="M34.0077 49.2287L4.07916 19.3001L34.0077 1.03906L63.9363 19.3001L34.0077 49.2287Z" fill="#FFE4E1"/>
  <path d="M34.0083 50.124C33.7709 50.124 33.5433 50.0295 33.3755 49.8619L3.44702 19.9332C3.25292 19.7391 3.1586 19.4669 3.19113 19.1944C3.22366 18.922 3.37938 18.6794 3.61365 18.5366L33.5422 0.275331C33.8283 0.100931 34.1881 0.100931 34.4744 0.275331L64.4029 18.5366C64.6369 18.6794 64.7929 18.922 64.8255 19.1944C64.8579 19.4669 64.7634 19.7391 64.5694 19.9332L34.6409 49.8619C34.4732 50.0295 34.2456 50.124 34.0083 50.124ZM5.51675 19.4718L34.0083 47.9635L62.4996 19.4718L34.0083 2.0876L5.51675 19.4718Z" fill="#C58FAC"/>
  <path opacity="0.1" d="M14.6917 13.908V29.7133L29.9807 45.0022H39.6279L56.9127 27.7174V15.1258L34.8044 1.63623L14.6917 13.908Z" fill="#231F20" fill-opacity="0.5"/>
  <path d="M54.8526 9.49805V43.9181H13.6033V9.49805C13.6033 4.74636 17.4552 0.894531 22.2067 0.894531H33.1397L54.8526 9.49805Z" fill="white"/>
  <path d="M54.8532 44.8134H13.6037C13.1095 44.8134 12.7088 44.4128 12.7088 43.9185V9.49841C12.7088 4.26089 16.9699 0 22.2072 0H33.1404C33.2532 0 33.365 0.0212746 33.47 0.0628319L55.1827 8.66636C55.5239 8.80159 55.7481 9.1315 55.7481 9.49841V43.9185C55.7481 44.4128 55.3474 44.8134 54.8532 44.8134ZM14.4986 43.0236H53.9583V10.1063L32.9696 1.78979H22.2072C17.9566 1.78979 14.4986 5.24785 14.4986 9.49841V43.0236Z" fill="#C58FAC"/>
  <path d="M22.2077 0.894531H53.588C58.3398 0.894531 62.1916 4.74636 62.1916 9.49805H30.811C30.811 4.74636 26.9592 0.894531 22.2077 0.894531Z" fill="white"/>
  <path d="M62.1916 10.3933H30.8111C30.3166 10.3933 29.9161 9.9926 29.9161 9.49841C29.9161 5.24785 26.4578 1.78979 22.2073 1.78979C21.7131 1.78979 21.3124 1.38907 21.3124 0.894896C21.3124 0.40051 21.7131 0 22.2073 0H53.588C58.8254 0 63.0865 4.26089 63.0865 9.49841C63.0865 9.9926 62.6858 10.3933 62.1916 10.3933ZM31.6641 8.60352H61.245C60.8 4.77317 57.5358 1.78979 53.588 1.78979H27.7511C29.9171 3.35167 31.401 5.8027 31.6641 8.60352Z" fill="#C58FAC"/>
  <path d="M19.68 18.0649C19.68 16.4081 21.0231 15.0649 22.68 15.0649H27.3079C28.9647 15.0649 30.3079 16.4081 30.3079 18.0649V23.705C30.3079 25.3619 28.9647 26.705 27.3079 26.705H22.68C21.0231 26.705 19.68 25.3619 19.68 23.705V18.0649Z" fill="#CFCCC6"/>
  <path d="M44.732 17.3227H34.104C33.8357 17.3227 33.6182 17.1052 33.6182 16.8369C33.6182 16.5686 33.8357 16.3511 34.104 16.3511H44.732C45.0003 16.3511 45.2179 16.5686 45.2179 16.8369C45.2179 17.1052 45.0003 17.3227 44.732 17.3227Z" fill="#C58FAC"/>
  <path d="M49.792 20.9922H34.3563C34.088 20.9922 33.8702 20.7746 33.8702 20.5063C33.8702 20.2381 34.088 20.0205 34.3563 20.0205H49.792C50.0605 20.0205 50.2778 20.2381 50.2778 20.5063C50.2778 20.7746 50.0605 20.9922 49.792 20.9922Z" fill="#C58FAC"/>
  <path d="M45.7495 30.7336H20.1857C19.9175 30.7336 19.6999 30.516 19.6999 30.2477C19.6999 29.9795 19.9175 29.7617 20.1857 29.7617H45.7495C46.0178 29.7617 46.2353 29.9795 46.2353 30.2477C46.2353 30.516 46.0178 30.7336 45.7495 30.7336Z" fill="#C58FAC"/>
  <path d="M40.6854 34.0221H20.1857C19.9175 34.0221 19.6999 33.8044 19.6999 33.5361C19.6999 33.2679 19.9175 33.0503 20.1857 33.0503H40.6854C40.9538 33.0503 41.1712 33.2679 41.1712 33.5361C41.1712 33.8044 40.9538 34.0221 40.6854 34.0221Z" fill="#C58FAC"/>
  <path d="M49.2941 37.3127H20.1857C19.9175 37.3127 19.6999 37.0949 19.6999 36.8266C19.6999 36.5584 19.9175 36.3408 20.1857 36.3408H49.2941C49.5625 36.3408 49.7799 36.5584 49.7799 36.8266C49.7799 37.0949 49.5625 37.3127 49.2941 37.3127Z" fill="#C58FAC"/>
  <path d="M44.7281 24.6598H34.3563C34.088 24.6598 33.8702 24.4421 33.8702 24.1738C33.8702 23.9055 34.088 23.688 34.3563 23.688H44.7281C44.9966 23.688 45.214 23.9055 45.214 24.1738C45.214 24.4421 44.9966 24.6598 44.7281 24.6598Z" fill="#C58FAC"/>
  <path opacity="0.1" d="M34.0083 46.4876L5.52908 18.0083L4.07983 18.8926L34.0083 48.8211L63.937 18.8926L62.4877 18.0083L34.0083 46.4876Z" fill="#231F20" fill-opacity="0.5"/>
  <path d="M34.0087 49.2273L4.27464 19.4932H4.08014V55.3289C4.08014 57.8625 6.134 59.9162 8.66751 59.9162H59.35C61.8836 59.9162 63.9373 57.8625 63.9373 55.3289V19.4932H63.743L34.0087 49.2273Z" fill="#FFE4E1"/>
  <path d="M59.3494 60.8114H8.66691C5.64394 60.8114 3.18481 58.3521 3.18481 55.3293V19.4935C3.18481 18.9994 3.58531 18.5986 4.07973 18.5986H4.27393C4.51118 18.5986 4.7389 18.6931 4.90672 18.8607L34.0081 47.9623L63.1098 18.8607C63.2774 18.6931 63.5051 18.5986 63.7424 18.5986H63.9367C64.4308 18.5986 64.8316 18.9994 64.8316 19.4935V55.3293C64.8316 58.3521 62.3724 60.8114 59.3494 60.8114ZM4.97456 21.4597V55.3293C4.97456 57.3653 6.6309 59.0216 8.66691 59.0216H59.3494C61.3854 59.0216 63.0417 57.3653 63.0417 55.3293V21.4599L34.6407 49.8607C34.2918 50.2099 33.7248 50.2099 33.3754 49.8607L4.97456 21.4597Z" fill="#C58FAC"/>
  <path opacity="0.1" d="M26.1232 42.2915L7.65912 59.1247L9.23988 59.1752L26.8393 43.1303M41.1186 43.2097L58.8869 59.4759L60.3199 59.2842L41.9294 42.4486" fill="#231F20" fill-opacity="0.5"/>
  <path d="M58.3573 59.918H9.65863L31.6953 39.8276C33.0335 38.6077 35.081 38.6097 36.4166 39.8325L58.3573 59.918Z" fill="#FFE4E1"/>
  <path d="M58.3576 60.8125H9.6592C9.28975 60.8125 8.95818 60.5854 8.82478 60.241C8.69128 59.8964 8.78322 59.5052 9.05617 59.2562L31.093 39.166C32.7847 37.6238 35.3337 37.6268 37.0214 39.172L58.9618 59.2576C59.2342 59.5068 59.3255 59.8978 59.1919 60.2418C59.0583 60.5858 58.7269 60.8125 58.3576 60.8125ZM11.969 59.0227H56.0547L35.8127 40.4923C34.8127 39.5761 33.3015 39.5745 32.2988 40.4887L11.969 59.0227Z" fill="#C58FAC"/>
  <path opacity="0.1" d="M59.3497 58.3612H8.66721C6.1337 58.3612 4.07983 56.3075 4.07983 53.7739V55.3297C4.07983 57.8632 6.1337 59.9169 8.66721 59.9169H59.3497C61.8831 59.9169 63.937 57.8632 63.937 55.3297V53.7739C63.937 56.3075 61.8831 58.3612 59.3497 58.3612Z" fill="#C58FAC"/>
</svg>