<svg xmlns="http://www.w3.org/2000/svg" width="84" height="80" viewBox="0 0 84 80" fill="none">
  <path opacity="0.1" d="M77.5896 79.9996H6.1189C2.73962 79.9996 0 77.26 0 73.8807C0 70.5013 2.73962 67.7617 6.1189 67.7617H77.5896C80.969 67.7617 83.7086 70.5013 83.7086 73.8807C83.7086 77.26 80.969 79.9996 77.5896 79.9996Z" fill="#241E1B"/>
  <path d="M41.8546 60.5896L5.01953 23.7545L41.8546 1.2793L78.6898 23.7545L41.8546 60.5896Z" fill="#EFF0ED"/>
  <path d="M41.8546 61.6909C41.5623 61.6909 41.2823 61.5746 41.0758 61.3683L4.24068 24.533C4.00179 24.2941 3.8857 23.9591 3.92574 23.6237C3.96578 23.2884 4.15743 22.9898 4.44576 22.8141L41.2808 0.338718C41.633 0.124073 42.0759 0.124073 42.4282 0.338718L79.2633 22.8141C79.5514 22.9898 79.7432 23.2884 79.7834 23.6237C79.8233 23.9591 79.707 24.2941 79.4682 24.533L42.6331 61.3683C42.4267 61.5746 42.1466 61.6909 41.8546 61.6909ZM6.78805 23.9652L41.8546 59.0318L76.9207 23.9652L41.8546 2.5692L6.78805 23.9652Z" fill="#E2785F"/>
  <path opacity="0.1" d="M18.0801 17.1174V36.57L36.8973 55.3872H48.7708L70.0443 34.1136V18.6162L42.8341 2.01367L18.0801 17.1174Z" fill="#231F20"/>
  <path d="M67.5085 11.6905V54.0536H16.7402V11.6905C16.7402 5.84227 21.481 1.10156 27.329 1.10156H40.785L67.5085 11.6905Z" fill="white"/>
  <path d="M67.5087 55.1549H16.7401C16.1318 55.1549 15.6387 54.662 15.6387 54.0535V11.6904C15.6387 5.24417 20.8831 0 27.329 0H40.7853C40.9241 0 41.0616 0.0261841 41.1909 0.0773315L67.9142 10.6663C68.3342 10.8327 68.6101 11.2388 68.6101 11.6904V54.0535C68.6101 54.662 68.1169 55.1549 67.5087 55.1549ZM17.8416 52.9521H66.4072V12.4386L40.5751 2.20282H27.329C22.0975 2.20282 17.8416 6.45889 17.8416 11.6904V52.9521Z" fill="#E2785F"/>
  <path d="M27.3301 1.10156H65.952C71.8003 1.10156 76.541 5.84227 76.541 11.6905H37.9187C37.9187 5.84227 33.1781 1.10156 27.3301 1.10156Z" fill="white"/>
  <path d="M76.5414 12.7918H37.9192C37.3107 12.7918 36.8177 12.2986 36.8177 11.6904C36.8177 6.45889 32.5614 2.20282 27.33 2.20282C26.7217 2.20282 26.2285 1.70963 26.2285 1.10141C26.2285 0.492935 26.7217 0 27.33 0H65.9524C72.3984 0 77.6428 5.24417 77.6428 11.6904C77.6428 12.2986 77.1497 12.7918 76.5414 12.7918ZM38.9691 10.5889H75.3763C74.8286 5.87466 70.8112 2.20282 65.9524 2.20282H34.1531C36.819 4.12514 38.6453 7.14178 38.9691 10.5889Z" fill="#E2785F"/>
  <path d="M24.2188 21.541C24.2188 19.8842 25.5619 18.541 27.2187 18.541H34.2992C35.9561 18.541 37.2992 19.8842 37.2992 21.541V29.8672C37.2992 31.5241 35.9561 32.8672 34.2992 32.8672H27.2188C25.5619 32.8672 24.2188 31.5241 24.2188 29.8672V21.541Z" fill="#CFCCC6"/>
  <path d="M55.0515 21.3209H41.9709C41.6407 21.3209 41.373 21.0531 41.373 20.7229C41.373 20.3928 41.6407 20.125 41.9709 20.125H55.0515C55.3817 20.125 55.6495 20.3928 55.6495 20.7229C55.6495 21.0531 55.3817 21.3209 55.0515 21.3209Z" fill="#E2785F"/>
  <path d="M61.2797 25.8365H42.2819C41.9517 25.8365 41.6836 25.5687 41.6836 25.2386C41.6836 24.9084 41.9517 24.6406 42.2819 24.6406H61.2797C61.6101 24.6406 61.8776 24.9084 61.8776 25.2386C61.8776 25.5687 61.6101 25.8365 61.2797 25.8365Z" fill="#E2785F"/>
  <path d="M56.3052 37.825H24.842C24.512 37.825 24.2441 37.5573 24.2441 37.2271C24.2441 36.8969 24.512 36.6289 24.842 36.6289H56.3052C56.6354 36.6289 56.9031 36.8969 56.9031 37.2271C56.9031 37.5573 56.6354 37.825 56.3052 37.825Z" fill="#E2785F"/>
  <path d="M50.0725 41.8739H24.842C24.512 41.8739 24.2441 41.6059 24.2441 41.2757C24.2441 40.9455 24.512 40.6777 24.842 40.6777H50.0725C50.4028 40.6777 50.6704 40.9455 50.6704 41.2757C50.6704 41.6059 50.4028 41.8739 50.0725 41.8739Z" fill="#E2785F"/>
  <path d="M60.6677 45.9227H24.842C24.512 45.9227 24.2441 45.6547 24.2441 45.3245C24.2441 44.9943 24.512 44.7266 24.842 44.7266H60.6677C60.9982 44.7266 61.2656 44.9943 61.2656 45.3245C61.2656 45.6547 60.9982 45.9227 60.6677 45.9227Z" fill="#E2785F"/>
  <path d="M55.0471 30.3504H42.2819C41.9517 30.3504 41.6836 30.0824 41.6836 29.7522C41.6836 29.4221 41.9517 29.1543 42.2819 29.1543H55.0471C55.3776 29.1543 55.6451 29.4221 55.6451 29.7522C55.6451 30.0824 55.3776 30.3504 55.0471 30.3504Z" fill="#E2785F"/>
  <path opacity="0.1" d="M41.8546 57.2155L6.80322 22.1641L5.01953 23.2524L41.8546 60.0875L78.6898 23.2524L76.9061 22.1641L41.8546 57.2155Z" fill="#231F20"/>
  <path d="M41.8547 60.5881L5.25891 23.9922H5.01953V68.0978C5.01953 71.216 7.54736 73.7436 10.6655 73.7436H73.0439C76.1622 73.7436 78.6898 71.216 78.6898 68.0978V23.9922H78.4507L41.8547 60.5881Z" fill="#EFF0ED"/>
  <path d="M73.0436 74.8448H10.6652C6.94458 74.8448 3.91797 71.8179 3.91797 68.0976V23.992C3.91797 23.3838 4.41089 22.8906 5.01941 22.8906H5.25842C5.55042 22.8906 5.83069 23.0069 6.03723 23.2132L41.8544 59.0306L77.6718 23.2132C77.8781 23.0069 78.1583 22.8906 78.4503 22.8906H78.6895C79.2976 22.8906 79.7909 23.3838 79.7909 23.992V68.0976C79.7909 71.8179 76.7642 74.8448 73.0436 74.8448ZM6.12073 26.412V68.0976C6.12073 70.6034 8.1593 72.642 10.6652 72.642H73.0436C75.5494 72.642 77.588 70.6034 77.588 68.0976V26.4122L42.6329 61.367C42.2035 61.7968 41.5056 61.7968 41.0756 61.367L6.12073 26.412Z" fill="#E2785F"/>
  <path opacity="0.1" d="M32.1508 52.0508L9.42578 72.7685L11.3713 72.8307L33.0321 53.0832M50.6067 53.1808L72.4753 73.2008L74.239 72.9648L51.6046 52.2441" fill="#231F20"/>
  <path d="M71.8235 73.7435H11.8867L39.0088 49.0169C40.6558 47.5156 43.1758 47.518 44.8196 49.023L71.8235 73.7435Z" fill="#EFF0ED"/>
  <path d="M71.8231 74.8444H11.8866C11.4319 74.8444 11.0238 74.5649 10.8596 74.141C10.6953 73.7168 10.8085 73.2354 11.1444 72.9289L38.2666 48.2025C40.3488 46.3044 43.486 46.3081 45.5631 48.2099L72.5666 72.9306C72.902 73.2373 73.0143 73.7185 72.8498 74.1419C72.6854 74.5654 72.2776 74.8444 71.8231 74.8444ZM14.7294 72.6416H68.9888L44.0756 49.8348C42.8447 48.7072 40.9849 48.7053 39.7507 49.8304L14.7294 72.6416Z" fill="#E2785F"/>
  <path opacity="0.1" d="M73.0439 71.8294H10.6655C7.54736 71.8294 5.01953 69.3018 5.01953 66.1836V68.0983C5.01953 71.2165 7.54736 73.7442 10.6655 73.7442H73.0439C76.162 73.7442 78.6898 71.2165 78.6898 68.0983V66.1836C78.6898 69.3018 76.162 71.8294 73.0439 71.8294Z" fill="#E2785F"/>
</svg>